<?xml version="1.0" encoding="UTF-8"?>
<!DOCTYPE svg PUBLIC "-//W3C//DTD SVG 1.1//EN" "http://www.w3.org/Graphics/SVG/1.1/DTD/svg11.dtd">
<!-- Creator: CorelDRAW X7 -->
<svg preserveAspectRatio="none" xmlns="http://www.w3.org/2000/svg" xml:space="preserve" width="108.501mm" height="108.501mm" version="1.1" style="shape-rendering:geometricPrecision; text-rendering:geometricPrecision; image-rendering:optimizeQuality; fill-rule:evenodd; clip-rule:evenodd"
viewBox="0 0 18179 18180"
 xmlns:xlink="http://www.w3.org/1999/xlink">
 <defs>
  <style type="text/css">
   <![CDATA[
    .fil1 {fill:#9CAABD}
    .fil0 {fill:#7688A1;fill-opacity:0.600000}
   ]]>
  </style>
   <mask id="id0">
  <linearGradient id="id1" gradientUnits="userSpaceOnUse" x1="9089.73" y1="18179.6" x2="9089.73" y2="17956.1">
   <stop offset="0" style="stop-opacity:0.0823529; stop-color:white"/>
   <stop offset="0.439216" style="stop-opacity:94.5294; stop-color:white"/>
   <stop offset="1" style="stop-opacity:0.588235; stop-color:white"/>
  </linearGradient>
    <rect style="fill:url(#id1)" x="-17" y="16414" width="18213" height="1782"/>
   </mask>
   <mask id="id2">
  <linearGradient id="id3" gradientUnits="userSpaceOnUse" x1="9089.73" y1="-1.81899e-012" x2="9089.73" y2="223.464">
   <stop offset="0" style="stop-opacity:0.0823529; stop-color:white"/>
   <stop offset="0.439216" style="stop-opacity:94.5294; stop-color:white"/>
   <stop offset="1" style="stop-opacity:0.588235; stop-color:white"/>
  </linearGradient>
    <rect style="fill:url(#id3)" x="-17" y="-17" width="18213" height="1782"/>
   </mask>
 </defs>
 <g id="Слой_x0020_1">
  <metadata id="CorelCorpID_0Corel-Layer"/>
  <path class="fil0" d="M0 0c0,5641 0,12539 0,18180l18179 0c0,-5641 0,-12539 0,-18180 -6059,0 -12119,0 -18179,0z"/>
  <path class="fil1" style="mask:url(#id0)" d="M0 16431c0,583 0,1166 0,1749l18179 0c0,-583 0,-1166 0,-1749 0,839 -686,1525 -1525,1525l-15129 0c-839,0 -1525,-686 -1525,-1525z"/>
  <path class="fil1" style="mask:url(#id2)" d="M0 1748c0,-582 0,-1165 0,-1748l18179 0c0,583 0,1166 0,1748 0,-838 -686,-1525 -1525,-1525l-15129 0c-839,0 -1525,687 -1525,1525z"/>
 </g>
</svg>
