<?xml version="1.0" encoding="UTF-8"?>
<!DOCTYPE svg PUBLIC "-//W3C//DTD SVG 1.1//EN" "http://www.w3.org/Graphics/SVG/1.1/DTD/svg11.dtd">
<!-- Creator: CorelDRAW X7 -->
<svg preserveAspectRatio="none" xmlns="http://www.w3.org/2000/svg" xml:space="preserve" width="220.001mm" height="29.0033mm" version="1.1" style="shape-rendering:geometricPrecision; text-rendering:geometricPrecision; image-rendering:optimizeQuality; fill-rule:evenodd; clip-rule:evenodd"
viewBox="0 0 27460 3620"
 xmlns:xlink="http://www.w3.org/1999/xlink">
 <defs>
  <style type="text/css">
   <![CDATA[
    .fil1 {fill:#9CAABD}
    .fil0 {fill:#7688A1;fill-opacity:0.600000}
   ]]>
  </style>
   <mask id="id0">
  <linearGradient id="id1" gradientUnits="userSpaceOnUse" x1="6771.43" y1="3620.14" x2="6771.43" y2="3453.67">
   <stop offset="0" style="stop-opacity:0.0823529; stop-color:white"/>
   <stop offset="0.439216" style="stop-opacity:-127.337; stop-color:white"/>
   <stop offset="1" style="stop-opacity:0.588235; stop-color:white"/>
  </linearGradient>
    <rect style="fill:url(#id1)" x="-12" y="2305" width="27485" height="1327"/>
   </mask>
   <mask id="id2">
  <linearGradient id="id3" gradientUnits="userSpaceOnUse" x1="6771.43" y1="1.19617e-008" x2="6771.43" y2="166.523">
   <stop offset="0" style="stop-opacity:0.0823529; stop-color:white"/>
   <stop offset="0.439216" style="stop-opacity:94.5294; stop-color:white"/>
   <stop offset="1" style="stop-opacity:0.588235; stop-color:white"/>
  </linearGradient>
    <rect style="fill:url(#id3)" x="-12" y="-12" width="27485" height="1328"/>
   </mask>
 </defs>
 <g id="Слой_x0020_1">
  <metadata id="CorelCorpID_0Corel-Layer"/>
  <path class="fil0" d="M0 1979c0,-660 0,-1319 0,-1979l27460 0c0,660 0,1319 0,1979 0,547 0,1094 0,1641l-27460 0c0,-547 0,-1094 0,-1641z"/>
  <path class="fil1" style="mask:url(#id0)" d="M0 2318c0,434 0,868 0,1302l27460 0c0,-434 0,-868 0,-1302 0,624 -511,1136 -1136,1136l-25188 0c-625,0 -1136,-512 -1136,-1136z"/>
  <path class="fil1" style="mask:url(#id2)" d="M0 1303l0 -1303c9153,0 18307,0 27460,0l0 1303c0,-625 -511,-1136 -1136,-1136l-25188 0c-625,0 -1136,511 -1136,1136z"/>
 </g>
</svg>
