<?xml version="1.0" encoding="UTF-8"?>
<!DOCTYPE svg PUBLIC "-//W3C//DTD SVG 1.1//EN" "http://www.w3.org/Graphics/SVG/1.1/DTD/svg11.dtd">
<!-- Creator: CorelDRAW X7 -->
<svg preserveAspectRatio="none" xmlns="http://www.w3.org/2000/svg" xml:space="preserve" width="71.3352mm" height="28.5247mm" version="1.1" style="shape-rendering:geometricPrecision; text-rendering:geometricPrecision; image-rendering:optimizeQuality; fill-rule:evenodd; clip-rule:evenodd"
viewBox="0 0 1427 571"
 xmlns:xlink="http://www.w3.org/1999/xlink">
 <defs>
  <style type="text/css">
   <![CDATA[
    .fil1 {fill:#9CAABD}
    .fil0 {fill:#7688A1;fill-opacity:0.600000}
   ]]>
  </style>
   <mask id="id0">
  <linearGradient id="id1" gradientUnits="userSpaceOnUse" x1="1085.56" y1="1.81899e-012" x2="1085.56" y2="26.6875">
   <stop offset="0" style="stop-opacity:0.0823529; stop-color:white"/>
   <stop offset="0.439216" style="stop-opacity:-46.0196; stop-color:white"/>
   <stop offset="1" style="stop-opacity:0.588235; stop-color:white"/>
  </linearGradient>
    <rect style="fill:url(#id1)" x="-2" y="-2" width="1431" height="213"/>
   </mask>
   <mask id="id2">
  <linearGradient id="id3" gradientUnits="userSpaceOnUse" x1="1085.56" y1="570.784" x2="1085.56" y2="544.096">
   <stop offset="0" style="stop-opacity:0.0823529; stop-color:white"/>
   <stop offset="0.439216" style="stop-opacity:7.6902; stop-color:white"/>
   <stop offset="1" style="stop-opacity:0.588235; stop-color:white"/>
  </linearGradient>
    <rect style="fill:url(#id3)" x="-2" y="360" width="1431" height="213"/>
   </mask>
 </defs>
 <g id="Слой_x0020_1">
  <metadata id="CorelCorpID_0Corel-Layer"/>
  <path class="fil0" d="M0 0c0,190 0,381 0,571l1427 0c0,-190 0,-381 0,-571 -475,0 -951,0 -1427,0z"/>
  <path class="fil1" style="mask:url(#id0)" d="M0 209c0,-70 0,-139 0,-209l1427 0c0,70 0,139 0,209 0,-100 -82,-182 -182,-182l-1063 0c-100,0 -182,82 -182,182z"/>
  <path class="fil1" style="mask:url(#id2)" d="M0 362c0,70 0,139 0,209l1427 0c0,-70 0,-139 0,-209 0,100 -82,182 -182,182l-1063 0c-100,0 -182,-82 -182,-182z"/>
 </g>
</svg>
