<svg xmlns="http://www.w3.org/2000/svg" xml:space="preserve" width="42.334mm" height="42.3326mm" version="1.1" style="shape-rendering:geometricPrecision; text-rendering:geometricPrecision; image-rendering:optimizeQuality; fill-rule:evenodd; clip-rule:evenodd"
viewBox="0 0 4318 4318"
 xmlns:xlink="http://www.w3.org/1999/xlink">
 <defs>
  <style type="text/css">
   <![CDATA[
    .fil2 {fill:#FFFFFF}
   ]]>
  </style>
 </defs>
 <g>
  <path class="fil2" d="M2159 486c196,0 393,74 542,224l1281 1280c65,65 65,171 0,235 -65,65 -171,65 -235,0l-1281 -1280c-84,-85 -196,-127 -307,-127 -111,0 -223,42 -307,127l-1281 1280c-64,65 -170,65 -235,0 -65,-64 -65,-170 0,-235l1281 -1280c149,-150 346,-224 542,-224zm217 549l692 691c-122,10 -241,61 -333,154l-347 346 -347 347c-69,69 -182,69 -251,0 -69,-69 -69,-182 0,-251l135 -134 87 -87c69,-69 69,-182 0,-251 -69,-69 -182,-69 -251,0l-87 87 -135 135c-207,207 -207,545 0,752 207,207 546,207 753,0l347 -347 346 -347c69,-69 182,-69 251,0 69,69 69,182 0,251l-914 914 -198 199c-69,69 -69,182 0,251 66,66 174,68 243,6 -57,53 -129,80 -202,81 -4,0 -8,0 -12,0l-1196 0c-133,0 -242,-109 -242,-242l0 -1201c0,-79 30,-158 90,-218l1137 -1136c119,-120 315,-120 434,0z"/>
  <path class="fil2" d="M2664 3368l0 -21c0,-8 7,-15 15,-15l168 0c19,0 20,-21 20,-36 0,-20 -8,-28 -27,-34l-119 -41c-15,-5 -32,-14 -43,-27 -14,-16 -18,-36 -18,-57 0,-25 5,-47 25,-63 16,-13 37,-19 57,-19l150 0c9,0 15,7 15,15l0 21c0,8 -6,15 -15,15l-153 0c-6,0 -16,2 -20,6 -5,6 -5,19 -5,25 0,18 2,27 20,33l116 41c17,6 35,13 48,25 17,16 23,37 23,59 0,21 -4,45 -17,62 -15,20 -36,26 -60,26l-165 0c-8,0 -15,-7 -15,-15zm504 -190l0 190c0,8 -6,15 -15,15l-22 0c-8,0 -15,-7 -15,-15l0 -190 -89 0c0,0 0,0 0,0l0 190c0,8 -6,15 -15,15l-22 0c-8,0 -15,-7 -15,-15l0 -188c0,-11 2,-23 7,-33 0,0 1,0 1,0 8,-14 22,-20 38,-20l209 0c20,0 41,5 57,18 18,16 22,40 22,62l0 161c0,8 -6,15 -15,15l-22 0c-8,0 -15,-7 -15,-15l0 -162c0,-7 -1,-17 -5,-22 -5,-6 -16,-6 -23,-6l-61 0zm345 40l0 -19c0,-4 -2,-13 -5,-17 -3,-3 -8,-4 -12,-4l-109 0c-9,0 -15,-7 -15,-16l0 -19c0,-9 6,-16 15,-16l110 0c18,0 38,7 50,21 14,15 18,35 18,55l0 135c0,13 -3,25 -12,34 -10,9 -23,11 -36,11l-87 0c-18,0 -35,-2 -50,-14 -21,-17 -25,-46 -25,-71 0,-24 4,-48 24,-65 14,-12 33,-15 51,-15l83 0zm106 150l0 -148c0,-27 4,-51 24,-70 18,-17 42,-23 66,-23l15 0c9,0 15,7 15,16l0 19c0,9 -6,16 -15,16l-13 0c-12,0 -24,1 -32,10 -7,9 -8,26 -8,37l0 143c0,8 -7,15 -15,15l-22 0c-8,0 -15,-7 -15,-15zm177 -190l-16 0c-8,0 -15,-7 -15,-16l0 -19c0,-9 7,-16 15,-16l16 0 0 -57c0,-8 7,-15 15,-15l22 0c8,0 15,7 15,15l0 57 47 0c8,0 15,7 15,16l0 19c0,9 -7,16 -15,16l-47 0 0 109c0,9 -1,38 6,43 5,2 27,3 32,3l12 0c8,0 15,6 15,15l0 20c0,8 -7,15 -15,15l-17 0c-24,0 -47,0 -65,-18 -19,-19 -20,-48 -20,-73l0 -114zm-918 513l-163 0 0 126c0,8 -7,15 -15,15l-23 0c-8,0 -15,-7 -15,-15l0 -297c0,-8 7,-15 15,-15l23 0c8,0 15,7 15,15l0 121 163 0 0 -121c0,-8 6,-15 15,-15l23 0c8,0 15,7 15,15l0 297c0,8 -7,15 -15,15l-23 0c-9,0 -15,-7 -15,-15l0 -126zm106 12c0,-35 7,-74 33,-100 25,-24 60,-28 94,-28 33,0 68,4 93,28 26,26 33,65 33,100 0,35 -7,76 -33,102 -24,25 -60,30 -93,30 -34,0 -69,-5 -94,-30 -26,-26 -33,-67 -33,-102zm491 -76l0 190c0,8 -7,15 -15,15l-22 0c-8,0 -15,-7 -15,-15l0 -190 -89 0c0,0 0,1 0,1l0 189c0,8 -6,15 -15,15l-22 0c-8,0 -15,-7 -15,-15l0 -187c0,-11 1,-23 7,-33 0,0 1,-1 1,-1 8,-13 22,-19 38,-19l209 0c20,0 41,4 57,18 17,16 22,39 22,62l0 160c0,8 -7,15 -15,15l-22 0c-8,0 -15,-7 -15,-15l0 -162c0,-6 -1,-16 -5,-22 -6,-5 -16,-6 -23,-6l-61 0zm240 100c1,10 2,20 4,27 4,17 17,28 35,28l111 0c8,0 15,7 15,15l0 20c0,8 -7,15 -15,15l-111 0c-28,0 -53,-10 -71,-33 -21,-27 -22,-61 -22,-93 0,-39 4,-79 36,-105 22,-19 52,-24 80,-24 22,0 46,4 65,15 30,19 44,50 44,84 0,15 -3,31 -15,41 -9,8 -22,10 -34,10l-122 0zm-202 -459l-88 0c-4,0 -10,1 -12,5 -4,5 -5,20 -5,26 0,7 1,23 6,29 2,3 7,5 10,5l89 0 0 -65zm-475 438c0,19 0,47 14,62 15,15 39,17 59,17 19,0 44,-2 58,-17 14,-15 14,-43 14,-62 0,-20 0,-50 -14,-66 -13,-14 -40,-15 -58,-15 -19,0 -46,1 -59,15 -14,16 -14,46 -14,66zm678 -29l116 0c0,-13 -4,-26 -12,-36 -12,-14 -30,-14 -47,-14 -20,0 -38,1 -49,20 -6,9 -7,20 -8,30z"/>
 </g>
</svg>
