<?xml version="1.0" encoding="UTF-8"?>
<!DOCTYPE svg PUBLIC "-//W3C//DTD SVG 1.1//EN" "http://www.w3.org/Graphics/SVG/1.1/DTD/svg11.dtd">
<!-- Creator: CorelDRAW X7 -->
<svg xmlns="http://www.w3.org/2000/svg" xml:space="preserve" width="42.334mm" height="42.3326mm" version="1.1" style="shape-rendering:geometricPrecision; text-rendering:geometricPrecision; image-rendering:optimizeQuality; fill-rule:evenodd; clip-rule:evenodd"
viewBox="0 0 4318 4318"
 xmlns:xlink="http://www.w3.org/1999/xlink">
 <defs>
  <style type="text/css">
   <![CDATA[
    .fil2 {fill:#FEFEFE}
    .fil3 {fill:#B2B3B3}
    .fil1 {fill:#B5212F}
    .fil0 {fill:url(#id0);fill-rule:nonzero}
   ]]>
  </style>
  <radialGradient id="id0" gradientUnits="userSpaceOnUse" gradientTransform="matrix(-1.01299 -1.00727 1.00727 -1.01299 2171 6521)" cx="2159" cy="2158.93" r="1511.3" fx="2159" fy="2158.93">
   <stop offset="0" style="stop-opacity:1; stop-color:#E52C3B"/>
   <stop offset="0.631373" style="stop-opacity:1; stop-color:#BA2732"/>
   <stop offset="1" style="stop-opacity:1; stop-color:#8F2329"/>
  </radialGradient>
 </defs>
 <g id="Слой_x0020_1">
  <metadata id="CorelCorpID_0Corel-Layer"/>
  <path class="fil0" d="M4317 1199c0,-69 -1,-97 -2,-130 -1,-97 -8,-195 -24,-282 -18,-96 -42,-183 -86,-269 -45,-89 -106,-165 -172,-233 -68,-66 -144,-127 -233,-172 -86,-44 -173,-68 -269,-86 -87,-16 -185,-23 -282,-24 -33,-1 -61,-2 -130,-2 -65,-1 -119,-1 -158,-1l-1604 0c-39,0 -93,0 -158,1 -69,0 -97,1 -130,2 -97,1 -195,8 -282,24 -96,18 -183,42 -269,86 -89,45 -165,106 -233,172 -66,68 -127,144 -172,233 -44,86 -68,173 -86,269 -16,87 -23,185 -24,282 -1,33 -2,61 -2,130 -1,65 -1,119 -1,158l0 1604c0,39 0,93 1,158 0,69 1,97 2,130 1,97 8,195 24,282 18,96 42,183 86,269 45,88 106,165 172,232 68,67 144,128 233,172 86,44 173,69 269,87 87,16 185,22 282,24 33,1 61,1 130,2 65,1 119,1 158,1l1604 0c39,0 93,0 158,-1 69,-1 97,-1 130,-2 97,-2 195,-8 282,-24 96,-18 183,-43 269,-87 89,-44 165,-105 233,-172 66,-67 127,-144 172,-232 44,-86 68,-173 86,-269 16,-87 23,-185 24,-282 1,-33 2,-61 2,-130 1,-65 1,-119 1,-158l0 -1604c0,-39 0,-93 -1,-158z"/>
  <path class="fil1" d="M2672 3334c2,-4 7,-8 13,-8l167 0c4,0 8,0 10,-2 -3,5 -7,8 -15,8l-168 0c-3,0 -5,1 -7,2zm10 -258c3,-3 5,-5 8,-8 16,-13 37,-18 57,-18l151 0c8,0 15,6 15,15l0 20c0,5 -3,10 -7,13 1,-2 1,-5 1,-7l0 -21c0,-8 -6,-15 -15,-15l-150 0c-20,0 -41,6 -57,19 -1,0 -2,1 -3,2zm41 34c-3,6 -3,16 -3,22 0,17 1,26 20,33l115 40c17,6 36,13 49,26 16,15 23,37 23,59 0,20 -5,45 -18,61 -2,4 -5,7 -7,9 0,-1 1,-2 2,-3 13,-17 17,-41 17,-62 0,-22 -6,-43 -23,-59 -13,-12 -31,-19 -48,-25l-116 -41c-18,-6 -20,-15 -20,-33 0,-6 0,-19 5,-25 1,-1 2,-1 4,-2zm451 68l0 184c0,5 -3,10 -8,13 2,-2 2,-5 2,-7l0 -190 6 0zm-141 0l0 184c0,5 -3,10 -7,13 1,-2 1,-5 1,-7l0 -190c0,0 0,0 0,0l6 0zm-42 -40c8,-11 21,-16 35,-16l209 0c20,0 42,4 57,18 18,15 23,39 23,62l0 160c0,5 -3,10 -8,13 2,-2 2,-5 2,-7l0 -161c0,-22 -4,-46 -22,-62 -16,-13 -37,-18 -57,-18l-209 0c-12,0 -22,4 -30,11zm388 -8c2,-5 7,-8 13,-8l110 0c19,0 38,7 51,20 14,15 18,36 18,56l0 134c0,13 -3,25 -13,34l-1 2c6,-9 8,-19 8,-30l0 -135c0,-20 -4,-40 -18,-55 -12,-14 -32,-21 -50,-21l-110 0c-3,0 -6,1 -8,3zm-2 105c2,-3 4,-5 7,-7 15,-13 33,-16 52,-16l77 0 0 6 -83 0c-18,0 -37,3 -51,15l-2 2zm267 -85c1,-2 3,-4 5,-6 18,-17 41,-22 66,-22l15 0c8,0 15,7 15,15l0 20c0,5 -3,10 -8,13 2,-2 2,-5 2,-8l0 -19c0,-9 -6,-16 -15,-16l-15 0c-24,0 -47,6 -65,23zm39 34c-6,9 -7,25 -7,35l0 143c0,5 -2,10 -7,13 1,-2 2,-5 2,-7l0 -143c0,-11 1,-28 8,-37 1,-2 3,-3 4,-4zm89 -54c3,-5 8,-8 14,-8l10 0 0 5 -16 0c-3,0 -5,1 -8,3zm31 -73c3,-4 8,-7 14,-7l22 0c8,0 15,6 15,15l0 57 47 0c8,0 15,7 15,15l0 20c0,5 -3,10 -8,13 2,-2 2,-5 2,-8l0 -19c0,-9 -7,-16 -15,-16l-47 0 0 -57c0,-8 -7,-15 -15,-15l-22 0c-3,0 -5,1 -8,2zm51 121l0 104c0,8 -1,37 6,42 4,3 26,3 31,3l12 0c9,0 15,7 15,15l0 20c0,5 -3,10 -7,13 1,-2 2,-5 2,-7l0 -20c0,-9 -7,-15 -15,-15l-12 0c-5,0 -27,-1 -32,-3 -7,-5 -6,-34 -6,-43l0 -109 6 0zm-1134 513l0 120c0,6 -3,11 -7,13 1,-2 2,-4 2,-7l0 -126 5 0zm-51 -184c3,-5 8,-8 13,-8l23 0c9,0 15,7 15,15l0 121 158 0 0 6 -163 0 0 -121c0,-8 -7,-15 -15,-15l-23 0c-3,0 -6,1 -8,2zm216 0c2,-5 7,-8 13,-8l23 0c8,0 15,7 15,15l0 297c0,6 -3,11 -7,13 1,-2 2,-4 2,-7l0 -297c0,-8 -7,-15 -15,-15l-23 0c-3,0 -6,1 -8,2zm133 95c1,-1 3,-3 4,-4 25,-25 61,-29 94,-29 34,0 69,4 94,29 26,25 32,65 32,100 0,34 -6,76 -32,101l-2 2c23,-26 29,-65 29,-98 0,-35 -7,-74 -33,-100 -25,-24 -60,-28 -93,-28 -33,0 -68,4 -93,27zm463 25l0 184c0,6 -3,11 -8,13 2,-2 2,-4 2,-7l0 -190 6 0zm-141 0l0 184c0,6 -3,11 -8,13 2,-2 2,-4 2,-7l0 -189c0,0 0,-1 0,-1l6 0zm-43 -40c9,-11 22,-16 36,-16l209 0c20,0 42,4 57,18 18,16 23,40 23,62l0 160c0,6 -3,11 -8,13 2,-2 2,-4 2,-7l0 -160c0,-23 -5,-46 -22,-62 -16,-14 -37,-18 -57,-18l-209 0c-12,0 -22,3 -31,10zm424 140c1,8 2,16 3,21 5,17 18,28 36,28l110 0c8,0 15,7 15,16l0 19c0,6 -3,11 -7,13 1,-2 2,-4 2,-7l0 -20c0,-8 -7,-15 -15,-15l-111 0c-18,0 -31,-11 -35,-28 -2,-7 -3,-17 -4,-27l6 0zm-28 -123c3,-3 6,-6 10,-9 22,-19 51,-24 80,-24 21,0 45,4 65,15 30,19 43,50 43,85 0,14 -3,30 -14,40l-1 1c8,-10 10,-23 10,-36 0,-34 -14,-65 -44,-84 -19,-11 -43,-15 -65,-15 -28,0 -58,5 -80,24 -1,1 -3,2 -4,3zm-276 -334c-3,6 -3,18 -3,23 0,8 0,23 5,30 3,2 7,4 11,4l83 0 0 6 -89 0c-3,0 -8,-2 -10,-5 -5,-6 -6,-22 -6,-29 0,-6 1,-21 5,-26 1,-1 2,-2 4,-3zm-373 430c0,19 0,47 14,62 14,16 39,17 58,17 18,0 40,-1 55,-13 -1,0 -2,1 -2,2 -14,15 -39,17 -58,17 -20,0 -44,-2 -59,-17 -14,-15 -14,-43 -14,-62 0,-20 0,-50 14,-66 1,-1 2,-2 4,-3 -12,16 -12,45 -12,63zm677 -28l111 0c0,2 0,3 0,5l-116 0c1,-10 2,-21 8,-30 2,-4 5,-8 9,-10 -2,1 -3,3 -4,4 -5,9 -7,20 -8,31z"/>
  <path class="fil1" d="M2179 486c197,0 393,74 543,224l1280 1280c65,65 65,171 0,235 -35,35 -81,51 -127,49 39,-3 77,-19 107,-49 65,-64 65,-170 0,-235l-1281 -1280c-146,-147 -339,-222 -532,-224l10 0zm-10 332c-108,3 -215,45 -297,127l-1280 1280c-35,35 -82,51 -128,49 39,-3 77,-19 107,-49l1281 -1280c84,-85 196,-127 307,-127 3,0 7,0 10,0zm228 217l691 691c-121,10 -240,61 -333,154l-347 346 -347 347c-37,37 -86,54 -135,52 42,-3 83,-20 115,-52l347 -347 347 -346c92,-93 211,-144 333,-154l-692 -691c-57,-57 -131,-87 -207,-90 82,-2 165,27 228,90zm-501 764c-42,2 -83,19 -115,51l-87 87 -134 135c-207,207 -207,545 0,752 101,101 233,153 366,155 -140,3 -281,-49 -387,-155 -207,-207 -207,-545 0,-752l135 -135 87 -87c37,-37 87,-54 135,-51zm1225 280c49,-3 99,14 136,51 69,69 69,182 0,251l-914 914 -199 199c-69,69 -69,182 0,251 32,31 73,49 115,51 -48,3 -98,-14 -135,-51 -69,-69 -69,-182 0,-251l198 -199 914 -914c69,-69 69,-182 0,-251 -32,-31 -73,-49 -115,-51z"/>
  <path class="fil2" d="M2159 486c196,0 393,74 542,224l1281 1280c65,65 65,171 0,235 -65,65 -171,65 -235,0l-1281 -1280c-84,-85 -196,-127 -307,-127 -111,0 -223,42 -307,127l-1281 1280c-64,65 -170,65 -235,0 -65,-64 -65,-170 0,-235l1281 -1280c149,-150 346,-224 542,-224zm217 549l692 691c-122,10 -241,61 -333,154l-347 346 -347 347c-69,69 -182,69 -251,0 -69,-69 -69,-182 0,-251l135 -134 87 -87c69,-69 69,-182 0,-251 -69,-69 -182,-69 -251,0l-87 87 -135 135c-207,207 -207,545 0,752 207,207 546,207 753,0l347 -347 346 -347c69,-69 182,-69 251,0 69,69 69,182 0,251l-914 914 -198 199c-69,69 -69,182 0,251 66,66 174,68 243,6 -57,53 -129,80 -202,81 -4,0 -8,0 -12,0l-1196 0c-133,0 -242,-109 -242,-242l0 -1201c0,-79 30,-158 90,-218l1137 -1136c119,-120 315,-120 434,0z"/>
  <path class="fil3" d="M2664 3368l0 -21c0,-8 7,-15 15,-15l168 0c19,0 20,-21 20,-36 0,-20 -8,-28 -27,-34l-119 -41c-15,-5 -32,-14 -43,-27 -14,-16 -18,-36 -18,-57 0,-25 5,-47 25,-63 16,-13 37,-19 57,-19l150 0c9,0 15,7 15,15l0 21c0,8 -6,15 -15,15l-153 0c-6,0 -16,2 -20,6 -5,6 -5,19 -5,25 0,18 2,27 20,33l116 41c17,6 35,13 48,25 17,16 23,37 23,59 0,21 -4,45 -17,62 -15,20 -36,26 -60,26l-165 0c-8,0 -15,-7 -15,-15zm504 -190l0 190c0,8 -6,15 -15,15l-22 0c-8,0 -15,-7 -15,-15l0 -190 -89 0c0,0 0,0 0,0l0 190c0,8 -6,15 -15,15l-22 0c-8,0 -15,-7 -15,-15l0 -188c0,-11 2,-23 7,-33 0,0 1,0 1,0 8,-14 22,-20 38,-20l209 0c20,0 41,5 57,18 18,16 22,40 22,62l0 161c0,8 -6,15 -15,15l-22 0c-8,0 -15,-7 -15,-15l0 -162c0,-7 -1,-17 -5,-22 -5,-6 -16,-6 -23,-6l-61 0zm345 40l0 -19c0,-4 -2,-13 -5,-17 -3,-3 -8,-4 -12,-4l-109 0c-9,0 -15,-7 -15,-16l0 -19c0,-9 6,-16 15,-16l110 0c18,0 38,7 50,21 14,15 18,35 18,55l0 135c0,13 -3,25 -12,34 -10,9 -23,11 -36,11l-87 0c-18,0 -35,-2 -50,-14 -21,-17 -25,-46 -25,-71 0,-24 4,-48 24,-65 14,-12 33,-15 51,-15l83 0zm106 150l0 -148c0,-27 4,-51 24,-70 18,-17 42,-23 66,-23l15 0c9,0 15,7 15,16l0 19c0,9 -6,16 -15,16l-13 0c-12,0 -24,1 -32,10 -7,9 -8,26 -8,37l0 143c0,8 -7,15 -15,15l-22 0c-8,0 -15,-7 -15,-15zm177 -190l-16 0c-8,0 -15,-7 -15,-16l0 -19c0,-9 7,-16 15,-16l16 0 0 -57c0,-8 7,-15 15,-15l22 0c8,0 15,7 15,15l0 57 47 0c8,0 15,7 15,16l0 19c0,9 -7,16 -15,16l-47 0 0 109c0,9 -1,38 6,43 5,2 27,3 32,3l12 0c8,0 15,6 15,15l0 20c0,8 -7,15 -15,15l-17 0c-24,0 -47,0 -65,-18 -19,-19 -20,-48 -20,-73l0 -114zm-918 513l-163 0 0 126c0,8 -7,15 -15,15l-23 0c-8,0 -15,-7 -15,-15l0 -297c0,-8 7,-15 15,-15l23 0c8,0 15,7 15,15l0 121 163 0 0 -121c0,-8 6,-15 15,-15l23 0c8,0 15,7 15,15l0 297c0,8 -7,15 -15,15l-23 0c-9,0 -15,-7 -15,-15l0 -126zm106 12c0,-35 7,-74 33,-100 25,-24 60,-28 94,-28 33,0 68,4 93,28 26,26 33,65 33,100 0,35 -7,76 -33,102 -24,25 -60,30 -93,30 -34,0 -69,-5 -94,-30 -26,-26 -33,-67 -33,-102zm491 -76l0 190c0,8 -7,15 -15,15l-22 0c-8,0 -15,-7 -15,-15l0 -190 -89 0c0,0 0,1 0,1l0 189c0,8 -6,15 -15,15l-22 0c-8,0 -15,-7 -15,-15l0 -187c0,-11 1,-23 7,-33 0,0 1,-1 1,-1 8,-13 22,-19 38,-19l209 0c20,0 41,4 57,18 17,16 22,39 22,62l0 160c0,8 -7,15 -15,15l-22 0c-8,0 -15,-7 -15,-15l0 -162c0,-6 -1,-16 -5,-22 -6,-5 -16,-6 -23,-6l-61 0zm240 100c1,10 2,20 4,27 4,17 17,28 35,28l111 0c8,0 15,7 15,15l0 20c0,8 -7,15 -15,15l-111 0c-28,0 -53,-10 -71,-33 -21,-27 -22,-61 -22,-93 0,-39 4,-79 36,-105 22,-19 52,-24 80,-24 22,0 46,4 65,15 30,19 44,50 44,84 0,15 -3,31 -15,41 -9,8 -22,10 -34,10l-122 0zm-202 -459l-88 0c-4,0 -10,1 -12,5 -4,5 -5,20 -5,26 0,7 1,23 6,29 2,3 7,5 10,5l89 0 0 -65zm-475 438c0,19 0,47 14,62 15,15 39,17 59,17 19,0 44,-2 58,-17 14,-15 14,-43 14,-62 0,-20 0,-50 -14,-66 -13,-14 -40,-15 -58,-15 -19,0 -46,1 -59,15 -14,16 -14,46 -14,66zm678 -29l116 0c0,-13 -4,-26 -12,-36 -12,-14 -30,-14 -47,-14 -20,0 -38,1 -49,20 -6,9 -7,20 -8,30z"/>
 </g>
</svg>
