<?xml version="1.0" encoding="utf-8"?>
<!-- Generator: Adobe Illustrator 17.1.0, SVG Export Plug-In . SVG Version: 6.00 Build 0)  -->
<!DOCTYPE svg PUBLIC "-//W3C//DTD SVG 1.1 Basic//EN" "http://www.w3.org/Graphics/SVG/1.1/DTD/svg11-basic.dtd">
<svg version="1.1" baseProfile="basic" id="Слой_1"
	 xmlns="http://www.w3.org/2000/svg" xmlns:xlink="http://www.w3.org/1999/xlink" x="0px" y="0px" viewBox="0 0 1920 400"
	 xml:space="preserve">
<g>
	<path fill="none" stroke="#03EADC" stroke-width="10" stroke-miterlimit="10" d="M226.9,230.4c-23.5-23.5-30.9-56.2-13.7-83.1
		c0.2-0.3,3.5-4.2,3.5-4.2l53.2,53.1l18.3-18.4l-52.7-52.9c0,0,2.1-1.7,4.3-3c26.8-16.4,62.3-13,85.4,10.2
		c27.2,27.2,27.2,71.2,0,98.4C298.2,257.6,254.1,257.6,226.9,230.4z"/>
	
		<rect x="370.2" y="205.1" transform="matrix(-0.7071 0.7071 -0.7071 -0.7071 861.8425 223.228)" fill="none" stroke="#03EADC" stroke-width="10" stroke-miterlimit="10" width="29" height="170"/>
</g>
<text transform="matrix(1 0 0 1 725.5769 229.3579)" fill="#03EADC" font-family="'HelveticaNeueCyr-Light'" font-size="55">Ремонт/замена устройства</text>
</svg>
