<?xml version="1.0" encoding="utf-8"?>
<!-- Generator: Adobe Illustrator 17.1.0, SVG Export Plug-In . SVG Version: 6.00 Build 0)  -->
<!DOCTYPE svg PUBLIC "-//W3C//DTD SVG 1.1 Basic//EN" "http://www.w3.org/Graphics/SVG/1.1/DTD/svg11-basic.dtd">
<svg version="1.1" baseProfile="basic" id="Слой_1"
	 xmlns="http://www.w3.org/2000/svg" xmlns:xlink="http://www.w3.org/1999/xlink" x="0px" y="0px" viewBox="0 0 950 760"
	 xml:space="preserve">
<g>
	<path fill="#131313" stroke="#03EADC" stroke-width="4" stroke-miterlimit="10" d="M425.2,180.4h94.9l35.2,154.9h-21.7v96.2
		c2.7,0.9,5,3.6,5,6.8c0,4.1-3.6,7.2-7.2,7.2c-4.1,0-7.7-3.2-7.7-7.2c0-3.1,2.3-5.9,5-6.8v-96.2H390L425.2,180.4L425.2,180.4z
		 M472.6,270.8c-9.5,0-16.7,7.2-16.7,16.7c0,6.3,3.6,12.2,8.6,14.9v16.2h16.3v-16.2c5-2.7,8.6-8.6,8.6-14.9
		C489.4,278,482.1,270.8,472.6,270.8L472.6,270.8z M435.1,196.7l-28,122.9h131.4l-28.4-122.9H435.1L435.1,196.7z M463.2,351.6V568
		h-25.3v19h69.6v-19h-25.3V351.6H463.2z"/>
</g>
</svg>
