<?xml version="1.0" encoding="utf-8"?>
<!-- Generator: Adobe Illustrator 17.1.0, SVG Export Plug-In . SVG Version: 6.00 Build 0)  -->
<!DOCTYPE svg PUBLIC "-//W3C//DTD SVG 1.1 Basic//EN" "http://www.w3.org/Graphics/SVG/1.1/DTD/svg11-basic.dtd">
<svg version="1.1" baseProfile="basic" id="Слой_1"
	 xmlns="http://www.w3.org/2000/svg" xmlns:xlink="http://www.w3.org/1999/xlink" x="0px" y="0px" viewBox="0 0 950 760"
	 xml:space="preserve">
<g>
	<g id="Livello_2">
		<g>
			<path fill="#131313" stroke="#03EADC" stroke-width="6" stroke-miterlimit="10" d="M594.5,664.3"/>
			<g>
				<g>
					<path fill="#131313" stroke="#03EADC" stroke-width="6" stroke-miterlimit="10" d="M670.9,218c1-6-1.3-36.1-19-59.9
						c-13-17.5-31.2-27.8-54.2-30.8c-41.4-5.3-72,30.2-73.3,31.8c-0.7-0.4-1.3-0.7-1.9-0.8c-6.4-1.2-7.9-0.5-14.4,1.5
						c-7.9,2.4-29.2,20.6-29.2,20.6l0,0c-8.4-5.5-24.6-10.6-35.1-5.1C404,196,290.8,250.7,290.8,250.7l4.5,0.4
						c13.5,2.2,44.8,12.9,80.4,28c43.1,18.3,77.2,36.5,80.3,42.6l0.4,0.2c0,0,45.7-68,52.2-79.3c5.2-9.1,0.1-31.6-3-35.4
						c0,0,29.9-21.1,26.1-39.4c0.3-0.3,28.9-34.9,64.7-30.3c19.8,2.5,35.5,11.3,46.8,26.1c16.6,21.9,17.9,49.7,17.5,52.7
						c-25.5,155.3-13.9,382.8-13,399.3h-3.2c-0.7,0-1.3,0.6-1.3,1.3c0,0.7,0.6,1.3,1.3,1.3h16.8c0.7,0,1.3-0.6,1.3-1.3
						c0-0.7-0.6-1.3-1.3-1.3H658C657.4,605.3,645.3,374.5,670.9,218z"/>
					<g>
						<path fill="#131313" stroke="#03EADC" stroke-width="6" stroke-miterlimit="10" d="M737.2,618.9
							C737.3,617.6,737.2,619,737.2,618.9c0-4.3-37.3-8.6-83.5-8.6c-46.2,0-81.9,3.6-81.9,7.9c0,0.1-0.1-0.6-0.1,0.6"/>
						<path fill="#131313" stroke="#03EADC" stroke-width="6" stroke-miterlimit="10" d="M738.1,618.2c-0.7,1.6-6.4,3-15.6,4.2
							c-15.2,2-39.9,3.2-67.9,3.2l-67.9-3.2c-9.2-1.2-14.9-2.6-15.6-4.2h-0.7v9.1h0.7c1.8,4.1,38.5,7.4,83.5,7.4
							c45,0,81.7-3.3,83.5-7.4h0.4v-9.1H738.1z"/>
					</g>
				</g>
			</g>
		</g>
	</g>
	
		<ellipse transform="matrix(0.3968 -0.9179 0.9179 0.3968 -49.2727 514.7419)" fill="#131313" stroke="#03EADC" stroke-width="6" stroke-miterlimit="10" cx="367" cy="294.9" rx="10.4" ry="93.8"/>
</g>
</svg>
