<?xml version="1.0" encoding="utf-8"?>
<!-- Generator: Adobe Illustrator 17.1.0, SVG Export Plug-In . SVG Version: 6.00 Build 0)  -->
<!DOCTYPE svg PUBLIC "-//W3C//DTD SVG 1.1 Basic//EN" "http://www.w3.org/Graphics/SVG/1.1/DTD/svg11-basic.dtd">
<svg version="1.1" baseProfile="basic" id="Слой_1"
	 xmlns="http://www.w3.org/2000/svg" xmlns:xlink="http://www.w3.org/1999/xlink" x="0px" y="0px" viewBox="0 0 950 760"
	 xml:space="preserve">
<g>
	<path fill="#131313" stroke="#03EADC" stroke-width="6" stroke-miterlimit="10" d="M381.3,211.1c-19.8-14.8-56.2,0.3-82.7,33.6
		c-46.1-9.9-97.9,9.1-130,52.3L360,439.4c32.1-43.1,35.5-98.1,12.8-139.5C397.2,265.1,401.2,225.9,381.3,211.1z"/>
	<path fill="#131313" stroke="#03EADC" stroke-width="6" stroke-miterlimit="10" d="M707.1,573.1l-78.2,0c0.3-1.9,0.5-3.7,0.8-5.6
		l-19.5-2.4c-0.3,2.7-0.7,5.4-1.2,8l-87.1-0.1c-7.7,0-14,6.3-14,14l0,13.4c0,7.7,6.3,14,14,14l185.2,0.1c7.7,0,14-6.3,14-14l0-13.4
		C721.1,579.5,714.8,573.2,707.1,573.1z"/>
	<path fill="#131313" stroke="#03EADC" stroke-width="3" stroke-miterlimit="10" d="M598,447.2l18.8-5.8c-1.1-3.7-2.3-7.3-3.6-11
		l-18.6,6.4C595.8,440.3,596.9,443.8,598,447.2z"/>
	<path fill="#131313" stroke="#03EADC" stroke-width="3" stroke-miterlimit="10" d="M602.4,462.9l19-4.8c-0.9-3.7-1.9-7.4-3-11.2
		l-18.9,5.5C600.6,455.9,601.5,459.4,602.4,462.9z"/>
	<path fill="#131313" stroke="#03EADC" stroke-width="3" stroke-miterlimit="10" d="M572.3,387.6l17-9.8c-1.9-3.4-3.9-6.7-6-9.9
		l-16.6,10.4C568.6,381.4,570.5,384.4,572.3,387.6z"/>
	<path fill="#131313" stroke="#03EADC" stroke-width="3" stroke-miterlimit="10" d="M592.8,431.8l18.4-6.8
		c-1.3-3.6-2.7-7.2-4.2-10.8l-18.2,7.4C590.2,425,591.6,428.4,592.8,431.8z"/>
	<path fill="#131313" stroke="#03EADC" stroke-width="3" stroke-miterlimit="10" d="M579.9,401.9l17.6-8.8
		c-1.7-3.4-3.5-6.9-5.4-10.3l-17.2,9.4C576.7,395.4,578.3,398.6,579.9,401.9z"/>
	<path fill="#131313" stroke="#03EADC" stroke-width="3" stroke-miterlimit="10" d="M586.8,416.6l18-7.8c-1.5-3.5-3.1-7.1-4.8-10.6
		l-17.7,8.4C583.8,410,585.3,413.3,586.8,416.6z"/>
	<path fill="#131313" stroke="#03EADC" stroke-width="3" stroke-miterlimit="10" d="M611.6,527.4l19.6-0.6
		c-0.1-3.8-0.3-7.7-0.6-11.6l-19.6,1.4C611.3,520.2,611.5,523.9,611.6,527.4z"/>
	<path fill="#131313" stroke="#03EADC" stroke-width="3" stroke-miterlimit="10" d="M610.7,559.8l19.5,1.9c0.4-3.8,0.7-7.7,0.9-11.7
		l-19.6-1C611.3,552.7,611.1,556.3,610.7,559.8z"/>
	<path fill="#131313" stroke="#03EADC" stroke-width="3" stroke-miterlimit="10" d="M611.7,543.7l19.6,0.6c0.1-3.8,0.1-7.7,0.1-11.6
		l-19.7,0.3C611.8,536.5,611.8,540.1,611.7,543.7z"/>
	<path fill="#131313" stroke="#03EADC" stroke-width="3" stroke-miterlimit="10" d="M610.2,506.4c0.2,1.6,0.3,3.2,0.5,4.8l19.5-1.8
		c-0.1-1.7-0.3-3.4-0.5-5.1c-0.2-2.1-0.5-4.2-0.8-6.4l-19.5,2.5C609.7,502.4,610,504.4,610.2,506.4z"/>
	<path fill="#131313" stroke="#03EADC" stroke-width="3" stroke-miterlimit="10" d="M608.8,495l19.4-2.8c-0.6-3.8-1.2-7.6-1.9-11.4
		l-19.3,3.5C607.7,487.8,608.2,491.4,608.8,495z"/>
	<path fill="#131313" stroke="#03EADC" stroke-width="3" stroke-miterlimit="10" d="M606,478.9l19.3-3.8c-0.8-3.8-1.6-7.5-2.4-11.3
		l-19.1,4.5C604.5,471.8,605.3,475.3,606,478.9z"/>
	<path fill="#131313" stroke="#03EADC" stroke-width="3" stroke-miterlimit="10" d="M431.8,257l-4.7,19.1c3.5,0.9,7,1.8,10.4,2.8
		l5.6-18.8C439.4,258.9,435.6,257.9,431.8,257z"/>
	<path fill="#131313" stroke="#03EADC" stroke-width="3" stroke-miterlimit="10" d="M411.3,272.7c3.6,0.6,7.1,1.4,10.6,2.1l4.3-19.2
		c-3.7-0.8-7.5-1.6-11.4-2.3L411.3,272.7z"/>
	<path fill="#131313" stroke="#03EADC" stroke-width="3" stroke-miterlimit="10" d="M448.7,261.7l-6,18.7c3.4,1.1,6.8,2.3,10.2,3.5
		l6.8-18.4C456.1,264.2,452.4,262.9,448.7,261.7z"/>
	<path fill="#131313" stroke="#03EADC" stroke-width="3" stroke-miterlimit="10" d="M481.2,274.7l-8.6,17.7c3.2,1.6,6.4,3.2,9.6,4.9
		l9.4-17.2C488.2,278.2,484.7,276.4,481.2,274.7z"/>
	<path fill="#131313" stroke="#03EADC" stroke-width="3" stroke-miterlimit="10" d="M465.1,267.7l-7.3,18.3c3.4,1.3,6.6,2.7,9.9,4.2
		l8.1-17.9C472.4,270.6,468.7,269.1,465.1,267.7z"/>
	<path fill="#131313" stroke="#03EADC" stroke-width="3" stroke-miterlimit="10" d="M496.7,283l-9.8,17c3.1,1.8,6.1,3.7,9.1,5.6
		l10.7-16.5C503.4,287,500,284.9,496.7,283z"/>
	<path fill="#131313" stroke="#03EADC" stroke-width="3" stroke-miterlimit="10" d="M521,299.1c-3.1-2.3-6.3-4.6-9.5-6.8l-11.1,16.2
		c2.9,2,5.9,4.1,8.7,6.3L521,299.1z"/>
	<path fill="#131313" stroke="#03EADC" stroke-width="3" stroke-miterlimit="10" d="M554.5,360.5l15.7-11.8
		c-2.3-3.1-4.7-6.2-7.2-9.2l-15.2,12.5C550.1,354.8,552.3,357.7,554.5,360.5z"/>
	<path fill="#131313" stroke="#03EADC" stroke-width="3" stroke-miterlimit="10" d="M544.3,347.9l14.9-12.8
		c-2.5-2.9-5.1-5.8-7.8-8.7l-14.3,13.5C539.6,342.6,542,345.2,544.3,347.9z"/>
	<path fill="#131313" stroke="#03EADC" stroke-width="3" stroke-miterlimit="10" d="M395.2,270.3c3.6,0.4,7.2,0.9,10.7,1.5l3.1-19.4
		c-3.8-0.6-7.6-1.1-11.5-1.6L395.2,270.3z"/>
	<path fill="#131313" stroke="#03EADC" stroke-width="3" stroke-miterlimit="10" d="M563.8,373.8l16.4-10.8
		c-2.1-3.2-4.3-6.4-6.6-9.6l-15.9,11.5C559.8,367.8,561.8,370.8,563.8,373.8z"/>
	<path fill="#131313" stroke="#03EADC" stroke-width="3" stroke-miterlimit="10" d="M533.4,336.1l14-13.8c-2.7-2.8-5.6-5.5-8.4-8.1
		l-13.3,14.5C528.3,331,530.9,333.5,533.4,336.1z"/>
	<path fill="#131313" stroke="#03EADC" stroke-width="3" stroke-miterlimit="10" d="M521.7,325l12.9-14.8c-2.9-2.6-5.9-5.1-9-7.5
		l-12.2,15.4C516.2,320.3,519,322.6,521.7,325z"/>
</g>
</svg>
