<?xml version="1.0" encoding="utf-8"?>
<!-- Generator: Adobe Illustrator 17.1.0, SVG Export Plug-In . SVG Version: 6.00 Build 0)  -->
<!DOCTYPE svg PUBLIC "-//W3C//DTD SVG 1.1 Basic//EN" "http://www.w3.org/Graphics/SVG/1.1/DTD/svg11-basic.dtd">
<svg version="1.1" baseProfile="basic" id="Слой_1"
	 xmlns="http://www.w3.org/2000/svg" xmlns:xlink="http://www.w3.org/1999/xlink" x="0px" y="0px" viewBox="0 0 950 760"
	 xml:space="preserve">
<g id="vehicles">
	<path fill="#131313" stroke="#03EADC" stroke-width="6" stroke-miterlimit="10" d="M620.4,118.8c0-7.4-6-13.3-13.3-13.3h-22.4
		c-3.2,0-6.2,1.1-8.5,3h-23.4c-0.9,0-1.8,0.2-2.6,0.5c-0.1,0-0.2-0.1-0.4-0.1c-0.7-0.2-1.3-0.1-1.9,0.1c-0.7,0-2.2-0.2-3.5-0.3
		c-15.6-1.6-63.2-6.7-104.2,27.4c-35.6,29.6-56.7,61-62.7,132.6c-0.6,0-1.1,0.1-1.6,0.2v-17.6c1-1.2,1.7-2.7,1.7-4.4
		c0-2.5-1.3-4.6-3.3-5.7c-1.9-3.1-5.3-5.2-9.2-5.2s-7.3,2.1-9.2,5.2c-2,1.2-3.3,3.3-3.3,5.7c0,1.7,0.6,3.2,1.7,4.4v347.5h-7.5
		c-4.8,0-8.7,3.9-8.7,8.7v48.9h55.4v-48.9c0-4.8-3.9-8.7-8.7-8.7h-8.7V291.5c0.5,0.1,1.1,0.2,1.7,0.2c5.9,0,10.6-4.8,10.6-10.6v-1.8
		c0-3.2-1.4-6-3.6-7.9c5.6-70.7,25.9-101.1,60.3-129.7c38.6-32.1,83.9-27.3,98.8-25.7c0.8,0.1,1.6,0.2,2.3,0.2
		c0.3,3.6,3.3,6.4,6.9,6.4h8.9c0,0.2-0.1,0.4-0.1,0.6c0,2.3,1.9,4.2,4.2,4.2h4.3c0.4,0,0.8-0.1,1.2-0.2c0,0.1,0,0.1,0,0.2
		c0,4.7,3.8,8.5,8.5,8.5h28.5c4.4,0,8-3.4,8.4-7.8C619,125.6,620.4,122.4,620.4,118.8z"/>
</g>
</svg>
