<?xml version="1.0" encoding="utf-8"?>
<!-- Generator: Adobe Illustrator 17.1.0, SVG Export Plug-In . SVG Version: 6.00 Build 0)  -->
<!DOCTYPE svg PUBLIC "-//W3C//DTD SVG 1.1 Basic//EN" "http://www.w3.org/Graphics/SVG/1.1/DTD/svg11-basic.dtd">
<svg version="1.1" baseProfile="basic" id="Слой_1"
	 xmlns="http://www.w3.org/2000/svg" xmlns:xlink="http://www.w3.org/1999/xlink" x="0px" y="0px" viewBox="0 0 950 760"
	 xml:space="preserve">
<g>
	<path fill="#131313" stroke="#03EADC" stroke-width="6" stroke-miterlimit="10" d="M688.6,56.3h-89.9c-7.4,0-14.1,2.4-19.7,6.4
		c-143.3,4.1-258.6,121.8-258.6,266.1v375h35.3v-375c0-120.2,92.3-219.2,209.7-230c3,12.4,12.7,22.2,25.1,25.2
		c3.9,18.4,21,32.2,41.5,32.2H653c20.3,0,37.3-13.6,41.4-31.7c16.2-2.8,28.5-16.9,28.5-33.9C723,71.7,707.6,56.3,688.6,56.3z
		 M681.3,113.4c0,16.2-13.9,29.4-31.1,29.4h-15.5c-17.1,0-31.1-13.2-31.1-29.4v-7.5h77.6L681.3,113.4L681.3,113.4z"/>
	<path fill="#131313" stroke="#03EADC" stroke-width="6" stroke-miterlimit="10" d="M655.5,222.7c0,6.3-5.1,11.5-11.5,11.5l0,0
		c-6.3,0-11.5-5.1-11.5-11.5v-25.2c0-6.3,5.1-11.5,11.5-11.5l0,0c6.3,0,11.5,5.1,11.5,11.5V222.7z"/>
	<path fill="#131313" stroke="#03EADC" stroke-width="6" stroke-miterlimit="10" d="M585.6,213.4c-3.6,5.2-10.8,6.4-16,2.8l0,0
		c-5.2-3.6-6.4-10.8-2.8-16l14.5-20.7c3.6-5.2,10.8-6.4,16-2.8l0,0c5.2,3.6,6.4,10.8,2.8,16L585.6,213.4z"/>
	<path fill="#131313" stroke="#03EADC" stroke-width="6" stroke-miterlimit="10" d="M718.9,200.3c3.6,5.2,2.4,12.3-2.8,16l0,0
		c-5.2,3.6-12.3,2.4-16-2.8l-14.5-20.6c-3.6-5.2-2.4-12.3,2.8-16l0,0c5.2-3.6,12.3-2.4,16,2.8L718.9,200.3z"/>
</g>
</svg>
