<?xml version="1.0" encoding="utf-8"?>
<!-- Generator: Adobe Illustrator 17.1.0, SVG Export Plug-In . SVG Version: 6.00 Build 0)  -->
<!DOCTYPE svg PUBLIC "-//W3C//DTD SVG 1.1 Basic//EN" "http://www.w3.org/Graphics/SVG/1.1/DTD/svg11-basic.dtd">
<svg version="1.1" baseProfile="basic" id="Слой_1"
	 xmlns="http://www.w3.org/2000/svg" xmlns:xlink="http://www.w3.org/1999/xlink" x="0px" y="0px" viewBox="0 0 950 760"
	 xml:space="preserve">
<g>
	<line fill="none" stroke="#131313" stroke-width="6" stroke-miterlimit="10" x1="194.5" y1="261.5" x2="769.2" y2="261.5"/>
	<line fill="none" stroke="#131313" stroke-width="6" stroke-miterlimit="10" x1="194.5" y1="325" x2="769.2" y2="325"/>
	<line fill="none" stroke="#131313" stroke-width="6" stroke-miterlimit="10" x1="194.5" y1="388.5" x2="769.2" y2="388.5"/>
	<line fill="none" stroke="#131313" stroke-width="6" stroke-miterlimit="10" x1="194.5" y1="454.2" x2="769.2" y2="454.2"/>
	<line fill="none" stroke="#131313" stroke-width="6" stroke-miterlimit="10" x1="194.5" y1="517.7" x2="769.2" y2="517.7"/>
	<line fill="none" stroke="#131313" stroke-width="6" stroke-miterlimit="10" x1="671.8" y1="196.4" x2="671.8" y2="467.6"/>
	<path fill="none" stroke="#131313" stroke-width="6" stroke-miterlimit="10" d="M769.2,575.8c0,1.8-1.4,3.2-3.2,3.2H196.6
		c-1.8,0-3.2-1.4-3.2-3.2V201.2c0-1.8,1.4-3.2,3.2-3.2H766c1.8,0,3.2,1.4,3.2,3.2V575.8z"/>
	<rect x="666.9" y="468.7" fill="none" stroke="#131313" stroke-width="6" stroke-miterlimit="10" width="8.6" height="32.3"/>
</g>
</svg>
