<?xml version="1.0" encoding="utf-8"?>
<!-- Generator: Adobe Illustrator 17.1.0, SVG Export Plug-In . SVG Version: 6.00 Build 0)  -->
<!DOCTYPE svg PUBLIC "-//W3C//DTD SVG 1.1 Basic//EN" "http://www.w3.org/Graphics/SVG/1.1/DTD/svg11-basic.dtd">
<svg version="1.1" baseProfile="basic" id="Слой_1"
	 xmlns="http://www.w3.org/2000/svg" xmlns:xlink="http://www.w3.org/1999/xlink" x="0px" y="0px" viewBox="0 0 950 760"
	 xml:space="preserve">
<g id="Your_Icon_5_">
	<path fill="#131313" stroke="#03EADC" stroke-width="6" stroke-miterlimit="10" d="M617.3,355.3l-60.2-219h-0.5
		c-4.7-2.4-40.6-4.3-84.3-4.3s-79.6,1.9-84.3,4.3h-0.6l-60.2,219c0,4.4,60.6,7.9,136.9,8.2v17.6h-24.8c0,0-34.4,31.4-34.4,142.5
		c0,88.4,13.6,119.1,19.2,128c-18.4,1.7-30.3,4.4-30.3,7.5v9.5c0,5.2,35.1,9.5,78.5,9.5c43.3,0,78.5-4.2,78.5-9.5V659
		c0-3-11.9-5.7-30.2-7.5c5.6-8.9,19.2-39.5,19.2-128c0-111.1-34.5-142.5-34.5-142.5h-24.8v-17.6
		C556.7,363.2,617.3,359.7,617.3,355.3z"/>
</g>
</svg>
