<?xml version="1.0" encoding="utf-8"?>
<!-- Generator: Adobe Illustrator 17.1.0, SVG Export Plug-In . SVG Version: 6.00 Build 0)  -->
<!DOCTYPE svg PUBLIC "-//W3C//DTD SVG 1.1 Basic//EN" "http://www.w3.org/Graphics/SVG/1.1/DTD/svg11-basic.dtd">
<svg version="1.1" baseProfile="basic" id="Слой_1"
	 xmlns="http://www.w3.org/2000/svg" xmlns:xlink="http://www.w3.org/1999/xlink" x="0px" y="0px" viewBox="0 0 950 760"
	 xml:space="preserve">
<path fill="#131313" stroke="#03EADC" stroke-width="6" stroke-miterlimit="10" d="M600.8,240.4l-40.4-61.6c-2-3.1-5.4-4.9-9.1-4.9
	c-2.1,0-4.1,0.6-5.9,1.7l-20.1,13c-0.2-0.6-0.5-1.1-0.9-1.7l-50.5-77c-2-3.1-5.4-4.9-9.1-4.9c-2.1,0-4.1,0.6-5.9,1.7l-44.9,28.9
	c-5,3.2-6.4,9.8-3.2,14.8l27.6,42.1h-36v5.4h-60.7v-12h-5.4v-9.5h-12.7v9.5h-5.4v12h-63.8v12.5h63.8v18.3h5.4v347.7
	c-28.2,5.2-47,15.4-47,27.4v9.9c0,17.5,40.1,31.2,91.3,31.2s91.3-13.7,91.3-31.2v-9.9c0-17.5-40.1-31.2-91.3-31.2
	c-11.2,0-21.8,0.6-31.6,1.9V228.7h5.4v-18.3h60.7v5.4h43.2v-12.3l15.8,24.1c0.4,0.5,0.7,1,1.2,1.5l-20.2,13c-2.4,1.6-4.1,4-4.7,6.7
	c-0.6,2.8-0.1,5.6,1.5,8l40.4,61.6c2,3.1,5.4,4.9,9.1,4.9c2.1,0,4.1-0.6,5.9-1.7l103-66.2C602.7,252,604.1,245.3,600.8,240.4z
	 M456,613.7c0,15.1-40.3,27.9-87.9,27.9c-47.7,0-87.9-12.8-87.9-27.9v-1.4c10.6,13.2,45.4,22.7,87.9,22.7c42.5,0,77.3-9.5,87.9-22.7
	V613.7z M368.1,575.9c47.7,0,87.9,12.8,87.9,27.9c0,15.1-40.3,27.9-87.9,27.9c-47.7,0-87.9-12.8-87.9-27.9c0-10,17.8-19.1,43.6-24
	v16h0c0,3.4,2.8,6.2,6.3,6.2c3.5,0,6.3-2.8,6.3-6.2h0v0l0,0h0v-17.9C346.3,576.5,357,575.9,368.1,575.9z M337.4,224.2h-14.5v-33.9
	h14.5V224.2z M441.2,211.3H407V197h34.2V211.3z M418.4,145.6c-0.6-0.8-0.3-2,0.5-2.5l44.9-28.9c0.3-0.2,0.6-0.3,1-0.3
	c0.6,0,1.2,0.3,1.6,0.8l50.5,77c0.4,0.6,0.3,1.1,0.3,1.4c-0.1,0.3-0.3,0.8-0.8,1.2l-44.9,28.9c-0.9,0.5-2,0.3-2.6-0.5L418.4,145.6z
	 M592.8,247.8l-103,66.2c-0.8,0.5-2,0.3-2.6-0.5l-40.4-61.6c-0.4-0.6-0.3-1.1-0.3-1.4c0.1-0.3,0.2-0.8,0.8-1.2l103-66.2
	c0.3-0.2,0.7-0.3,1-0.3c0.6,0,1.2,0.3,1.6,0.8l40.4,61.6C593.9,246.1,593.7,247.2,592.8,247.8z"/>
</svg>
