<?xml version="1.0" encoding="utf-8"?>
<!-- Generator: Adobe Illustrator 17.1.0, SVG Export Plug-In . SVG Version: 6.00 Build 0)  -->
<!DOCTYPE svg PUBLIC "-//W3C//DTD SVG 1.1 Basic//EN" "http://www.w3.org/Graphics/SVG/1.1/DTD/svg11-basic.dtd">
<svg version="1.1" baseProfile="basic" id="Слой_1"
	 xmlns="http://www.w3.org/2000/svg" xmlns:xlink="http://www.w3.org/1999/xlink" x="0px" y="0px" viewBox="0 0 950 760"
	 xml:space="preserve">
<g id="Your_Icon_3_">
	<g>
		<path fill="#131313" stroke="#03EADC" stroke-width="6" stroke-miterlimit="10" d="M471.2,695.2h2c-0.3,0-0.7,0-1,0
			C471.8,695.2,471.5,695.2,471.2,695.2z"/>
		<path fill="#131313" stroke="#03EADC" stroke-width="6" stroke-miterlimit="10" d="M480.5,642.4V366.2h5.5v-11h-5.5V195
			c38.7-0.2,23.3,0,27.6-5.5h0.5l54.7-23.6c0-4.3-8.8-14.9-84.1-15.1h-14.1c-75.3,0.2-84.1,10.8-84.1,15.1l54.7,23.6h0.5
			c4.3,5.5-11,5.3,27.6,5.5v447.4c-27.6,6.4-67.3,10.5-67.3,28c0,13.6,33.8,24.6,75.3,24.8c41.5-0.2,75.7-11.2,75.7-24.8
			C547.6,652.9,508.1,648.8,480.5,642.4z"/>
	</g>
</g>
</svg>
