<?xml version="1.0" encoding="utf-8"?>
<!-- Generator: Adobe Illustrator 17.1.0, SVG Export Plug-In . SVG Version: 6.00 Build 0)  -->
<!DOCTYPE svg PUBLIC "-//W3C//DTD SVG 1.1 Basic//EN" "http://www.w3.org/Graphics/SVG/1.1/DTD/svg11-basic.dtd">
<svg version="1.1" baseProfile="basic" id="Слой_1"
	 xmlns="http://www.w3.org/2000/svg" xmlns:xlink="http://www.w3.org/1999/xlink" x="0px" y="0px" viewBox="0 0 950 760"
	 xml:space="preserve">
<g>
	<line fill="none" stroke="#03EADC" stroke-width="6" stroke-miterlimit="10" x1="190" y1="258.5" x2="764.8" y2="258.5"/>
	<line fill="none" stroke="#03EADC" stroke-width="6" stroke-miterlimit="10" x1="190" y1="322" x2="764.8" y2="322"/>
	<line fill="none" stroke="#03EADC" stroke-width="6" stroke-miterlimit="10" x1="190" y1="385.5" x2="764.8" y2="385.5"/>
	<line fill="none" stroke="#03EADC" stroke-width="6" stroke-miterlimit="10" x1="190" y1="451.2" x2="764.8" y2="451.2"/>
	<line fill="none" stroke="#03EADC" stroke-width="6" stroke-miterlimit="10" x1="190" y1="514.7" x2="764.8" y2="514.7"/>
	<line fill="none" stroke="#03EADC" stroke-width="6" stroke-miterlimit="10" x1="667.4" y1="193.4" x2="667.4" y2="464.6"/>
	<path fill="none" stroke="#03EADC" stroke-width="6" stroke-miterlimit="10" d="M764.8,572.8c0,1.8-1.4,3.2-3.2,3.2H192.2
		c-1.8,0-3.2-1.4-3.2-3.2V198.2c0-1.8,1.4-3.2,3.2-3.2h569.4c1.8,0,3.2,1.4,3.2,3.2V572.8z"/>
	<rect x="662.5" y="465.7" fill="none" stroke="#03EADC" stroke-width="6" stroke-miterlimit="10" width="8.6" height="32.3"/>
</g>
</svg>
