<?xml version="1.0" encoding="utf-8"?>
<!-- Generator: Adobe Illustrator 17.1.0, SVG Export Plug-In . SVG Version: 6.00 Build 0)  -->
<!DOCTYPE svg PUBLIC "-//W3C//DTD SVG 1.1 Basic//EN" "http://www.w3.org/Graphics/SVG/1.1/DTD/svg11-basic.dtd">
<svg version="1.1" baseProfile="basic" id="Слой_1"
	 xmlns="http://www.w3.org/2000/svg" xmlns:xlink="http://www.w3.org/1999/xlink" x="0px" y="0px" viewBox="0 0 950 760"
	 xml:space="preserve">
<g id="Page-1" sketch:type="MSPage">
	<g id="Noun-Project-100" transform="translate(-27.000000, -5.000000)" sketch:type="MSArtboardGroup">
		<g id="lamp_1_" transform="translate(27.000000, 5.000000)" sketch:type="MSLayerGroup">
			
				<path id="Rectangle-42" sketch:type="MSShapeGroup" fill="#131313" stroke="#03EADC" stroke-width="6" stroke-miterlimit="10" d="
				M436.8,145.9h-7l0,0c0.1,0.8,0.1,1.6,0.1,2.4c0,19.7-23.8,11.1-53.1,11.1c-29.3,0-53.1,8.6-53.1-11.1s23.8-39.8,53.1-39.8
				c21.1,0,39.3,10.4,47.8,23.5h17l0,0c1-1.7,2.7-2.8,4.8-2.8c3.1,0,5.5,2.5,5.5,5.5v8.4c0,3-2.5,5.5-5.5,5.5
				c-2.1,0-3.8-1.1-4.8-2.8h-2.1v25c0,0.8-0.6,1.3-1.4,1.3c-0.7,0-1.4-0.6-1.4-1.3V145.9z M548.5,170.2c-0.4,0.5-0.9,0.9-1.5,1.3
				v416.2h-11V171.5l0,0c-1.7-1-2.8-2.8-2.8-4.8c0-3.1,2.5-5.5,5.5-5.5h5.5c1.7,0,3.2,0.8,4.2,2c0.3-1.2,1.4-2,2.6-2
				c1.5,0,2.8,1.3,2.8,2.8v5.5c0,1.6-1.2,2.8-2.8,2.8C549.9,172.2,548.9,171.3,548.5,170.2L548.5,170.2z M600.7,604.2
				c-1.5-9.2-27.4-16.5-59.2-16.5c-31.8,0-57.7,7.3-59.2,16.5h-0.1v13.1c0,7.3,5.8,14.9,13,16.6c0,0,13.2,5,46.3,5
				c33.1,0,46.4-5,46.4-5c7.1-1.8,12.8-9.2,12.8-16.5L600.7,604.2L600.7,604.2L600.7,604.2z"/>
			<path id="Path-3" sketch:type="MSShapeGroup" fill="#131313" stroke="#03EADC" stroke-width="6" stroke-miterlimit="10" d="
				M451.8,138.7H530c6.1,0,11.1,5,11.1,11.1v12.3"/>
		</g>
	</g>
</g>
</svg>
