<?xml version="1.0" encoding="utf-8"?>
<!-- Generator: Adobe Illustrator 17.1.0, SVG Export Plug-In . SVG Version: 6.00 Build 0)  -->
<!DOCTYPE svg PUBLIC "-//W3C//DTD SVG 1.1 Basic//EN" "http://www.w3.org/Graphics/SVG/1.1/DTD/svg11-basic.dtd">
<svg version="1.1" baseProfile="basic" id="Слой_1"
	 xmlns="http://www.w3.org/2000/svg" xmlns:xlink="http://www.w3.org/1999/xlink" x="0px" y="0px" viewBox="0 0 950 760"
	 xml:space="preserve">
<path fill="#131313" stroke="#03EADC" stroke-width="6" stroke-miterlimit="10" d="M321.3,232.4c0-57.9-3.1-101.7,20.9-109.3
	c9.8-3.1,24.8-3.3,36.3,0c5.9,1.7,11,5.1,14.2,10.9l0,0l125.9-5.8c5.4-9.4,16.9-17.9,28.4-17.4c16.5,0.7,29.3,14.7,28.6,31.2
	c-0.2,5.1-1.3,9.2-3.7,13.3l0,0l121.2,184.1c1.1,0,2.2,0.1,3.3,0.2c16.4,1.7,29.1,15.5,29.1,32.3c0,15.7-11.1,28.8-25.9,31.8
	c-2.1,0.4-4.5,0.5-6.7,0.5l0,0l-116.8,231l129.9-0.2v20.3H437.5v-20.4h116.1l119.9-236.3l0,0c-7.3-6-12.9-16.5-12.9-26.6
	c0-10.3,4.5-19.9,12-25.8l0,0L556.2,168.9l0,0c-3.6,1.3-7.6,1.9-11.6,1.7c-13.5-0.6-24.5-10-27.7-22.5L398.3,154l0,0
	c3.6,21.6,2.1,50.6,2.1,78.8l0,0c26.4,37.1,43.4,58.2,99,147.7c0,0,1,2.2-3.1,2.4c-21.4,0.8-93.7,1.2-132.7,1.2
	c-44.2,0-118.9-0.7-137.4-1.7c-2.9-0.2-1.9-3.2-1.9-3.2C266.9,296.9,321.3,232.4,321.3,232.4L321.3,232.4z"/>
</svg>
