<?xml version="1.0" encoding="utf-8"?>
<!-- Generator: Adobe Illustrator 17.1.0, SVG Export Plug-In . SVG Version: 6.00 Build 0)  -->
<!DOCTYPE svg PUBLIC "-//W3C//DTD SVG 1.1 Basic//EN" "http://www.w3.org/Graphics/SVG/1.1/DTD/svg11-basic.dtd">
<svg version="1.1" baseProfile="basic" id="Слой_1"
	 xmlns="http://www.w3.org/2000/svg" xmlns:xlink="http://www.w3.org/1999/xlink" x="0px" y="0px" viewBox="0 0 950 760"
	 xml:space="preserve">
<g>
	<path fill="#131313" stroke="#03EADC" stroke-width="6" stroke-miterlimit="10" d="M497.4,211.5c0.1-0.4,0.1-0.9,0.2-1.3h166.2
		c0-51.4-41.6-93-93-93c-43,0-79.1,29.2-89.7,68.9c-1.5-0.3-3-0.5-4.5-0.5c-11.8,0-21.3,9.5-21.3,21.3c0,3.6,1,6.9,2.5,9.9
		L314.6,360.6c-1.8-0.5-3.6-0.8-5.6-0.8c-11.8,0-21.3,9.5-21.3,21.3c0,11.8,9.5,21.3,21.3,21.3c0.7,0,1.3-0.1,2-0.2l88.8,178.6
		c-3.3,3.8-5.4,8.6-5.4,14c0,10.9,8.3,19.8,18.8,21.1c-3,8.9-4.6,18.4-4.6,28.3h199.4c0-52-44.6-94.2-99.7-94.2
		c-30.1,0-57,12.7-75.3,32.6c-3.9-5.4-10.2-9-17.3-9c-2.8,0-5.4,0.6-7.8,1.5L320.4,399c5.9-3.8,9.9-10.4,9.9-17.9
		c0-6.1-2.6-11.6-6.8-15.5l140.8-141.3c3.5,2.5,7.7,4,12.3,4c7.8,0,14.5-4.2,18.2-10.4l10.3,7.7h158.4v-6.6H507.3L497.4,211.5z"/>
</g>
</svg>
