<?xml version="1.0" encoding="utf-8"?>
<!-- Generator: Adobe Illustrator 17.1.0, SVG Export Plug-In . SVG Version: 6.00 Build 0)  -->
<!DOCTYPE svg PUBLIC "-//W3C//DTD SVG 1.1 Basic//EN" "http://www.w3.org/Graphics/SVG/1.1/DTD/svg11-basic.dtd">
<svg version="1.1" baseProfile="basic" id="Слой_1"
	 xmlns="http://www.w3.org/2000/svg" xmlns:xlink="http://www.w3.org/1999/xlink" x="0px" y="0px" viewBox="0 0 950 760"
	 xml:space="preserve">
<path fill="#131313" stroke="#03EADC" stroke-width="6" stroke-miterlimit="10" d="M471.1,151h-15.9l3.3-14h9.3L471.1,151z
	 M473.1,609.7V297.7H468v-12.6h5.1v-22.7H468h-9.4h-4.8v22.7h4.8v12.6h-4.8v311.9c-26.8,1.1-47.2,6.9-47.2,13.9
	c0,7.7,25.3,14.1,56.5,14.1c31.2,0,56.5-6.3,56.5-14.1C519.7,616.6,499.6,610.8,473.1,609.7z M472.4,156.4h-18.4h-61.7l-47.5,100.5
	h109.2h19.2h108.5l-46.9-100.5H472.4z"/>
</svg>
