<?xml version="1.0" encoding="utf-8"?>
<!-- Generator: Adobe Illustrator 17.1.0, SVG Export Plug-In . SVG Version: 6.00 Build 0)  -->
<!DOCTYPE svg PUBLIC "-//W3C//DTD SVG 1.1 Basic//EN" "http://www.w3.org/Graphics/SVG/1.1/DTD/svg11-basic.dtd">
<svg version="1.1" baseProfile="basic" id="Слой_1"
	 xmlns="http://www.w3.org/2000/svg" xmlns:xlink="http://www.w3.org/1999/xlink" x="0px" y="0px" viewBox="0 0 950 760"
	 xml:space="preserve">
<g>
	<path fill="#131313" stroke="#03EADC" stroke-width="6" stroke-miterlimit="10" d="M514.5,533.3c0,5.6-4.5,10.1-10.1,10.1H444
		c-5.6,0-10.1-4.5-10.1-10.1c0-5.6,4.5-10.1,10.1-10.1h60.4C510,523.3,514.5,527.8,514.5,533.3z M504.4,553.4H444
		c-5.6,0-10.1,4.5-10.1,10.1s4.5,10.1,10.1,10.1c0,11.1,9,20.1,20.1,20.1h20.1c11.1,0,20.1-9,20.1-20.1c5.6,0,10.1-4.5,10.1-10.1
		S510,553.4,504.4,553.4z M574.9,372.3c0-55.6-45-100.6-100.6-100.6s-100.6,45-100.6,100.6c0,37.1,20.4,69.2,50.3,86.7v34.1
		c0,11.1,9,20.1,20.1,20.1h60.4c11.1,0,20.1-9,20.1-20.1V459C554.5,441.6,574.9,409.5,574.9,372.3z"/>
	<circle fill="#131313" stroke="#03EADC" stroke-width="6" stroke-miterlimit="10" cx="473.4" cy="238" r="14.7"/>
	<circle fill="#131313" stroke="#03EADC" stroke-width="6" stroke-miterlimit="10" cx="545.9" cy="258.4" r="14.7"/>
	<circle fill="#131313" stroke="#03EADC" stroke-width="6" stroke-miterlimit="10" cx="599.9" cy="311.3" r="14.7"/>
	<circle fill="#131313" stroke="#03EADC" stroke-width="6" stroke-miterlimit="10" cx="615.5" cy="374.5" r="14.7"/>
	<circle fill="#131313" stroke="#03EADC" stroke-width="6" stroke-miterlimit="10" cx="595.4" cy="437.8" r="14.7"/>
	<circle fill="#131313" stroke="#03EADC" stroke-width="6" stroke-miterlimit="10" cx="396.7" cy="259" r="14.7"/>
	<circle fill="#131313" stroke="#03EADC" stroke-width="6" stroke-miterlimit="10" cx="349.2" cy="311.1" r="14.7"/>
	<circle fill="#131313" stroke="#03EADC" stroke-width="6" stroke-miterlimit="10" cx="335.8" cy="374.3" r="14.7"/>
	<circle fill="#131313" stroke="#03EADC" stroke-width="6" stroke-miterlimit="10" cx="356.2" cy="438" r="14.7"/>
</g>
</svg>
