<?xml version="1.0" encoding="utf-8"?>
<!-- Generator: Adobe Illustrator 17.1.0, SVG Export Plug-In . SVG Version: 6.00 Build 0)  -->
<!DOCTYPE svg PUBLIC "-//W3C//DTD SVG 1.1 Basic//EN" "http://www.w3.org/Graphics/SVG/1.1/DTD/svg11-basic.dtd">
<svg version="1.1" baseProfile="basic" id="Слой_1"
	 xmlns="http://www.w3.org/2000/svg" xmlns:xlink="http://www.w3.org/1999/xlink" x="0px" y="0px" viewBox="0 0 950 760"
	 xml:space="preserve">
<g>
	<path fill="#131313" stroke="#03EADC" stroke-width="6" stroke-miterlimit="10" d="M568,449.8c0,4-3.2,7.2-7.2,7.2H385.2
		c-4,0-7.2-3.2-7.2-7.2V349.2c0-4,3.2-7.2,7.2-7.2h175.6c4,0,7.2,3.2,7.2,7.2V449.8z"/>
	<path fill="#131313" stroke="#03EADC" stroke-width="6" stroke-miterlimit="10" d="M620,387.9c0,6.1-5,11.1-11.1,11.1H338.1
		c-6.1,0-11.1-5-11.1-11.1V232.1c0-6.1,5-11.1,11.1-11.1h270.8c6.1,0,11.1,5,11.1,11.1V387.9z"/>
	<line fill="none" stroke="#03EADC" stroke-width="6" stroke-miterlimit="10" x1="560.6" y1="477.8" x2="610.9" y2="528.2"/>
	<line fill="none" stroke="#03EADC" stroke-width="6" stroke-miterlimit="10" x1="388.4" y1="477.8" x2="338.1" y2="528.2"/>
</g>
</svg>
