<?xml version="1.0" encoding="utf-8"?>
<!-- Generator: Adobe Illustrator 17.1.0, SVG Export Plug-In . SVG Version: 6.00 Build 0)  -->
<!DOCTYPE svg PUBLIC "-//W3C//DTD SVG 1.1 Basic//EN" "http://www.w3.org/Graphics/SVG/1.1/DTD/svg11-basic.dtd">
<svg version="1.1" baseProfile="basic" id="Слой_1"
	 xmlns="http://www.w3.org/2000/svg" xmlns:xlink="http://www.w3.org/1999/xlink" x="0px" y="0px" viewBox="0 0 950 760"
	 xml:space="preserve">
<g id="Layer_2">
	<path fill="#131313" stroke="#03EADC" stroke-width="6" stroke-miterlimit="10" d="M579.1,244.1c-4.7-9.9-11.6-12.6-23.1-25
		c-11.5-12.4-46-49.7-58-66.1c-12-16.4-38.3-82.6-41.4-90.8c0,0,0,0-1.4-4s-6.6-1.6-6.6-1.6c-3.6,1-12,4.6-20.4,8
		c-8.6,3.4-17,6.5-20.3,8.2c0,0-5.5,1.9-3.7,5.7c1.8,3.8,1.8,3.8,1.8,3.8c1.1,2.6,4.4,10.8,8.5,21.5l-17.9,7.3l1.9,4.6
		c-5.2,1.2-11.7,2.3-19,3.1c-12.6,1.5-28.3,10.7-32.8,27.3c-4.9,18.3-0.9,37.9,11.6,56.7c6.3,9.5,13.2,16.5,17.2,20.2L192.8,383.3
		l0.2,0.3l-0.2,0.2l232.7,274.5c-32.6,2.7-90.3,13.7-90.3,37h100.6h100.6c0-23.6-59-34.6-91.4-37L210.5,381.5l228.3-200.3
		c2.1,22.4,2.7,67.7,2.8,83.5c0.2,16.9-3.1,23.6,0.4,34c3.4,10.4,4.2,9.4,14.2,9.5c8.7,0.1,38.6-5.2,63.1-15
		c24.5-9.8,49.9-26.5,56.1-32.5C582.5,253.8,583.8,254,579.1,244.1z M352.4,147.9c3.6-13.3,16.7-21.6,27.7-23
		c5.4-0.6,13.5-1.8,20.6-3.5l2.5,6l17.4-7.2c6.4,17.3,13.1,36.6,16.1,49.1l-56.9,49.9C371.2,211.2,343.2,182.1,352.4,147.9z"/>
</g>
</svg>
