<?xml version="1.0" encoding="utf-8"?>
<!-- Generator: Adobe Illustrator 17.1.0, SVG Export Plug-In . SVG Version: 6.00 Build 0)  -->
<!DOCTYPE svg PUBLIC "-//W3C//DTD SVG 1.1 Basic//EN" "http://www.w3.org/Graphics/SVG/1.1/DTD/svg11-basic.dtd">
<svg version="1.1" baseProfile="basic" id="Слой_1"
	 xmlns="http://www.w3.org/2000/svg" xmlns:xlink="http://www.w3.org/1999/xlink" x="0px" y="0px" viewBox="0 0 950 760"
	 xml:space="preserve">
<path fill="#131313" stroke="#03EADC" stroke-width="5" stroke-miterlimit="10" d="M612,348.3l-23-26.8v-11.4
	c0-12.3-10-22.2-22.2-22.2h-78.3v-35.6h8v-8h8v-16l14.4-72.1h9.6v-8h-8l-48-56l-48,56h-8v8h9.6l14.4,72.1v16h8v8h8v35.6h-78.3
	c-12.3,0-22.2,10-22.2,22.2v11.4l-23,26.8h-4.6v4.6h5.5L342,394v9.2h4.6h27.5h4.6V394l8.2-41.2h5.5v-4.6h-4.6l-23-26.8V310
	c0-7.4,6-13.3,13.3-13.3h78.3v312.9c0,2.2-1.8,4-4,4h-0.1c-2.2,0-4,1.8-4,4v16.1c0,2.2-1.8,4-4,4h-0.1c-2.2,0-4,1.8-4,4v24.1
	c0,2.2,1.8,4,4,4h56.1c2.2,0,4-1.8,4-4v-24.1c0-2.2-1.8-4-4-4h-0.1c-2.2,0-4-1.8-4-4v-16.1c0-2.2-1.8-4-4-4h-0.1c-2.2,0-4-1.8-4-4
	V296.7h78.3c7.4,0,13.3,6,13.3,13.3v11.4l-23,26.8h-4.6v4.6h5.5l8.2,41.2v9.2h4.6h27.5h4.6V394l8.2-41.2h5.5v-4.6L612,348.3
	L612,348.3z M358,392.5h-11.4l-9.1-39.6H358L358,392.5z M383.2,352.9l-9.1,39.6h-11.4v-39.6H383.2z M476.4,156.2h36l-16,69.4h-20
	L476.4,156.2z M448.4,225.5l-16-69.4h36v69.4H448.4z M582.2,392.5h-11.4l-9.2-39.6h20.6V392.5z M598.2,392.5h-11.4v-39.6h20.6
	L598.2,392.5z"/>
</svg>
