<?xml version="1.0" encoding="utf-8"?>
<!-- Generator: Adobe Illustrator 17.1.0, SVG Export Plug-In . SVG Version: 6.00 Build 0)  -->
<!DOCTYPE svg PUBLIC "-//W3C//DTD SVG 1.1 Basic//EN" "http://www.w3.org/Graphics/SVG/1.1/DTD/svg11-basic.dtd">
<svg version="1.1" baseProfile="basic" id="Слой_1"
	 xmlns="http://www.w3.org/2000/svg" xmlns:xlink="http://www.w3.org/1999/xlink" x="0px" y="0px" viewBox="0 0 950 760"
	 xml:space="preserve">
<path fill="#131313" stroke="#03EADC" stroke-width="6" stroke-miterlimit="10" d="M539.6,436c0.2,2.2,0.4,4.5,0.4,7v6.8
	c0,12.6-3.6,22.8-7.9,22.8H420.9c-4.4,0-7.9-10.2-7.9-22.8V443c0-2.4,0.1-4.8,0.4-7c-35.4-21.4-59.1-60.3-59.1-104.7
	c0-67.5,54.7-122.3,122.3-122.3c67.5,0,122.3,54.7,122.3,122.3C598.7,375.7,575,414.6,539.6,436z M532.7,486.3c0-4.4-3.1-7.9-7-7.9
	h-98.4c-3.9,0-7,3.6-7,7.9v2.4c0,4.4,3.1,7.9,7,7.9h98.4c3.9,0,7-3.6,7-7.9V486.3z M529.6,510.3c0-4.4-3-7.9-6.6-7.9h-93
	c-3.7,0-6.6,3.6-6.6,7.9v2.4c0,4.4,3,7.9,6.6,7.9h93c3.7,0,6.6-3.6,6.6-7.9V510.3z M524.9,534.3c0-4.4-2.7-7.9-6.1-7.9h-84.7
	c-3.3,0-6.1,3.6-6.1,7.9v2.4c0,4.4,2.7,7.9,6.1,7.9h84.7c3.3,0,6.1-3.6,6.1-7.9V534.3z M516.7,550.1h-80.5l6.7,22.9H510L516.7,550.1
	z"/>
</svg>
