<?xml version="1.0" encoding="utf-8"?>
<!-- Generator: Adobe Illustrator 17.1.0, SVG Export Plug-In . SVG Version: 6.00 Build 0)  -->
<!DOCTYPE svg PUBLIC "-//W3C//DTD SVG 1.1 Basic//EN" "http://www.w3.org/Graphics/SVG/1.1/DTD/svg11-basic.dtd">
<svg version="1.1" baseProfile="basic" id="Слой_1"
	 xmlns="http://www.w3.org/2000/svg" xmlns:xlink="http://www.w3.org/1999/xlink" x="0px" y="0px" viewBox="0 0 950 760"
	 xml:space="preserve">
<g>
	<path fill="#131313" stroke="#03EADC" stroke-width="6" stroke-miterlimit="10" d="M258.8,590.4c-0.7,15.7-1.3,31.4-1.3,34.5
		c0,9.8,28.7,23.5,75.6,23.5c46.9,0,76.9-14.4,76.9-24.2v-32.8c-18.5,9.5-46.7,14.5-74.8,14.5C306.3,605.8,277.3,600.5,258.8,590.4
		L258.8,590.4z M258.8,590.4"/>
	<path fill="#131313" stroke="#03EADC" stroke-width="6" stroke-miterlimit="10" d="M420.6,179.1c-37.1,0-60,22.1-72.8,40.6
		c-14.4,21.1-23,48.5-23,73.4v247.5c-26.4,1.2-46.9,6.9-58.4,13.3c-4.7,2.6-7.9,5.2-9.3,7.7c-0.6,1-1,2-1,2.9c0,1.9,1.2,4,3.6,6.1
		c9.4,8.7,37.3,18.1,75.5,18.1c34.3,0,60.1-7.6,71.9-15.4c4.5-3,7-6,7.1-8.7c0,0,0-0.1,0-0.1c0-2.5-2.2-5.4-6.3-8.3
		c-10.7-7.5-34.4-14.9-66.1-15.8V293c0-40.6,27.4-96.9,78.8-96.9c42.6,0,77.5,30.3,90.7,43.4l11.4-12.7
		C507.4,211.5,469.2,179.1,420.6,179.1L420.6,179.1z M420.6,179.1"/>
	<path fill="#131313" stroke="#03EADC" stroke-width="6" stroke-miterlimit="10" d="M534.3,226.7l-5.7,6.3l-10.3,11.5l-2.1,2.3
		l45.1,43.8l22.8-26.1L534.3,226.7z M534.3,226.7"/>
	<path fill="#131313" stroke="#03EADC" stroke-width="6" stroke-miterlimit="10" d="M601.9,269.9h-11.1l-25.1,28.6l1.2,3.5l1.8,5.2
		l0.6,1.8C577.9,303.8,592.2,292.1,601.9,269.9L601.9,269.9z M601.9,269.9"/>
	<path fill="#131313" stroke="#03EADC" stroke-width="6" stroke-miterlimit="10" d="M610.2,272.1c-0.8,2-1.8,3.8-2.7,5.7
		c-0.9,1.8-1.7,3.6-2.6,5.2c-8.9,16-19.7,25.7-27.8,31.2c-2.3,1.6-4.4,2.9-6.1,3.8c-0.2,0.1-0.5,0.3-0.7,0.4l2.5,3.6l49.7,70.6
		c6.4-2.2,23.8-9.5,44.2-30c20.6-20.6,25.9-40.7,27.1-47.8l-82.2-42.1L610.2,272.1z M610.2,272.1"/>
</g>
</svg>
