<?xml version="1.0" encoding="utf-8"?>
<!-- Generator: Adobe Illustrator 17.1.0, SVG Export Plug-In . SVG Version: 6.00 Build 0)  -->
<!DOCTYPE svg PUBLIC "-//W3C//DTD SVG 1.1 Basic//EN" "http://www.w3.org/Graphics/SVG/1.1/DTD/svg11-basic.dtd">
<svg version="1.1" baseProfile="basic" id="Слой_1"
	 xmlns="http://www.w3.org/2000/svg" xmlns:xlink="http://www.w3.org/1999/xlink" x="0px" y="0px" viewBox="0 0 950 760"
	 xml:space="preserve">
<path fill="#131313" stroke="#03EADC" stroke-width="6" stroke-miterlimit="10" d="M423.7,151.1c0-7.4-6-13.3-13.3-13.3
	c-7.4,0-13.3,6-13.3,13.3c0,1.4,0.2,2.7,0.6,4l-77.9,82.4v0c-0.7-0.1-1.5-0.2-2.2-0.2c-7.4,0-13.3,6-13.3,13.3h-28.5L234,323h83.6
	h83.6l-41.8-72.4h-28.5c0-2.2-0.6-4.4-1.5-6.2v0l76.4-80.8c1.4,0.5,3,0.8,4.6,0.8c2.7,0,5.3-0.8,7.4-2.2l247.3,116.6
	c-0.2,1.4-0.4,2.9-0.4,4.3c0,3.7,0.8,7.2,2.2,10.4l0,0L463.3,549.7v0c-2.5-0.7-5.2-1-7.9-1c-16.6,0-30.1,13.5-30.1,30.1H294.9
	c-9.5,0-17.3,7-17.3,15.6v14.5h259.5v-14.5c0-8.6-7.7-15.6-17.3-15.6h-34.3c0-5.2-1.3-10-3.6-14.2l0,0l203.7-256.2v0
	c1.6,0.3,3.2,0.5,4.8,0.5c14.2,0,25.6-11.5,25.6-25.6c0-14.2-11.5-25.6-25.6-25.6c-8.3,0-15.6,3.9-20.3,10l0,0L423.7,151.3"/>
</svg>
