<?xml version = "1.0" encoding = "UTF-8" standalone = "no"?>

<svg
	xmlns:svg = "http://www.w3.org/2000/svg"
	xmlns = "http://www.w3.org/2000/svg"
	version = "1.1"
	width = "10cm"
	height = "6.75cm"
	viewBox = "0 0 1000 675"
>
	<!-- <rect fill = "black" x = "0" y = "0" width = "1000" height = "675" /> -->
	<g transform = "translate( -100 -175 )">

	<g transform = "matrix(1.25,0,0,-1.25,0,937.5)">
		<path
			d = "m 589.5,169.5 -214,0 0,286 214,0 0,-286 z"
			style = "fill:none;stroke:#02eadc;stroke-opacity:1;stroke-width:5;stroke-linecap:butt;stroke-linejoin:miter;stroke-miterlimit:10;stroke-dasharray:none"
		/>
		<path
			d = "m 544.5,169.5 -120,0 0,225 120,0 0,-225 z"
			style = "fill:none;stroke:#02eadc;stroke-opacity:1;stroke-width:5;stroke-linecap:butt;stroke-linejoin:miter;stroke-miterlimit:10;stroke-dasharray:none"
		/>
		<g
			transform = "translate(83.3666,606.5285)">
			<path
				d = "M 0,0 291.318,-152.316"
				style = "fill:none;stroke:#02eadc;stroke-opacity:1;stroke-width:5;stroke-linecap:butt;stroke-linejoin:miter;stroke-miterlimit:10;stroke-dasharray:none"
			/>
		</g>
		<g
			transform = "translate(877.6845,607.5441)">
			<path
				d = "M 0,0 -288.337,-153.332"
				style = "fill:none;stroke:#02eadc;stroke-opacity:1;stroke-width:5;stroke-linecap:butt;stroke-linejoin:miter;stroke-miterlimit:10;stroke-dasharray:none"
			/>
		</g>
		<g
			transform = "translate(879.6563,75.6761)">
			<path
				d = "M 0,0 -293.014,95.256"
				style = "fill:none;stroke:#02eadc;stroke-opacity:1;stroke-width:5;stroke-linecap:butt;stroke-linejoin:miter;stroke-miterlimit:10;stroke-dasharray:none"
			/>
		</g>
		<g
			transform = "translate(81.6428,75.6761)">
			<path
				d = "M 0,0 293.014,95.256"
				style = "fill:none;stroke:#02eadc;stroke-opacity:1;stroke-width:5;stroke-linecap:butt;stroke-linejoin:miter;stroke-miterlimit:10;stroke-dasharray:none"
			/>
		</g>
		<g
			transform = "translate(501.0609,474.5)">
			<path
				d = "M 0,0 -31.099,0 -41.916,15 9.465,15 0,0 z"
				style = "fill:none;stroke:#02eadc;stroke-opacity:1;stroke-width:5;stroke-linecap:butt;stroke-linejoin:miter;stroke-miterlimit:10;stroke-dasharray:none"
			/>
		</g>
		<g
			transform = "translate(521.3429,506.5)">
			<path
				d = "M 0,0 -71.663,0 -85.184,22 13.521,22 0,0 z"
				style = "fill:none;stroke:#02eadc;stroke-opacity:1;stroke-width:5;stroke-linecap:butt;stroke-linejoin:miter;stroke-miterlimit:10;stroke-dasharray:none"
			/>
		</g>
		<g
			transform = "translate(542.977,549.5)">
			<path
				d = "M 0,0 -113.579,0 -132.509,30 18.93,30 0,0 z"
				style = "fill:none;stroke:#02eadc;stroke-opacity:1;stroke-width:5;stroke-linecap:butt;stroke-linejoin:miter;stroke-miterlimit:10;stroke-dasharray:none"
			/>
		</g>
		<path
			d = "m 530.5,266.5 -12,0 0,50 12,0 0,-50 z"
			style = "fill:none;stroke:#02eadc;stroke-opacity:1;stroke-width:5;stroke-linecap:butt;stroke-linejoin:miter;stroke-miterlimit:10;stroke-dasharray:none"
		/>
			<path
			d = "m 791.5,248.5 -12,0 0,50 12,0 0,-50 z"
			style = "fill:none;stroke:#02eadc;stroke-opacity:1;stroke-width:5;stroke-linecap:butt;stroke-linejoin:miter;stroke-miterlimit:10;stroke-dasharray:none"
		/>
			<path
			d = "m 265.5,243.5 -12,0 0,50 12,0 0,-50 z"
			style = "fill:none;stroke:#02eadc;stroke-opacity:1;stroke-width:5;stroke-linecap:butt;stroke-linejoin:miter;stroke-miterlimit:10;stroke-dasharray:none"
		/><g
			transform = "translate(280.5,140.7736)">
			<path
				d = "m 0,0 -122,-38.274 0,337.375 L 0,273.249 0,0 z"
				style = "fill:none;stroke:#02eadc;stroke-opacity:1;stroke-width:5;stroke-linecap:butt;stroke-linejoin:miter;stroke-miterlimit:10;stroke-dasharray:none"
			/>
		</g>
		<g
			transform = "translate(685.5,139.1365)">
			<path
				d = "M 0,0 122,-38.274 122,299.101 0,273.249 0,0 z"
				style = "fill:none;stroke:#02eadc;stroke-opacity:1;stroke-width:5;stroke-linecap:butt;stroke-linejoin:miter;stroke-miterlimit:10;stroke-dasharray:none"
			/>
		</g>
	</g>
	</g>
</svg>
