<?xml version="1.0" encoding="utf-8"?>
<!-- Generator: Adobe Illustrator 17.1.0, SVG Export Plug-In . SVG Version: 6.00 Build 0)  -->
<!DOCTYPE svg PUBLIC "-//W3C//DTD SVG 1.1 Basic//EN" "http://www.w3.org/Graphics/SVG/1.1/DTD/svg11-basic.dtd">
<svg version="1.1" baseProfile="basic" id="Слой_1"
	 xmlns="http://www.w3.org/2000/svg" xmlns:xlink="http://www.w3.org/1999/xlink" x="0px" y="0px" viewBox="0 0 950 760"
	 xml:space="preserve">
<g stroke-width="6">
	<g>
		<line fill="#000000" stroke="#03EADC" _stroke-width="3" _stroke-miterlimit="10" x1="155" y1="312" x2="155" y2="347"/>
		<g>
			<path fill="#000000" stroke="#03EADC" _stroke-width="3" _stroke-miterlimit="10" d="M112.5,408.3c-0.3-1.5-0.5-12.3-0.6-13.9
				c-0.1-1.2-0.1-2.3-0.1-3.5c0-11.8,4.6-23,12.9-31.4c8.3-8.4,19.4-13,31.2-13c11.8,0,22.9,4.6,31.2,13
				c8.3,8.4,12.9,19.5,12.9,31.4c0,0.8,0,1.6-0.1,2.4c-0.1,1.6-0.3,13.3-0.5,14.9"/>
			<line fill="#000000" stroke="#03EADC" _stroke-width="3" _stroke-miterlimit="10" x1="111" y1="410" x2="201" y2="410"/>
		</g>
	</g>
	<line fill="#000000" stroke="#03EADC" _stroke-width="3" _stroke-miterlimit="10" x1="153" y1="310" x2="791" y2="310"/>
	<g>
		<line fill="#000000" stroke="#03EADC" _stroke-width="3" _stroke-miterlimit="10" x1="314" y1="312" x2="314" y2="347"/>
		<g>
			<path fill="#000000" stroke="#03EADC" _stroke-width="3" _stroke-miterlimit="10" d="M271.6,408.3c-0.3-1.5-0.5-12.3-0.6-13.9
				c-0.1-1.2-0.1-2.3-0.1-3.5c0-11.8,4.6-23,12.9-31.4c8.3-8.4,19.4-13,31.2-13c11.8,0,22.9,4.6,31.2,13
				c8.3,8.4,12.9,19.5,12.9,31.4c0,0.8,0,1.6-0.1,2.4c-0.1,1.6-0.3,13.3-0.5,14.9"/>
			<line fill="#000000" stroke="#03EADC" _stroke-width="3" _stroke-miterlimit="10" x1="270" y1="410" x2="360" y2="410"/>
		</g>
	</g>
	<g>
		<line fill="#000000" stroke="#03EADC" _stroke-width="3" _stroke-miterlimit="10" x1="471" y1="313" x2="471" y2="348"/>
		<g>
			<path fill="#000000" stroke="#03EADC" _stroke-width="3" _stroke-miterlimit="10" d="M428.5,409.3c-0.3-1.5-0.5-12.3-0.6-13.9
				c-0.1-1.2-0.1-2.3-0.1-3.5c0-11.8,4.6-23,12.9-31.4c8.3-8.4,19.4-13,31.2-13s22.9,4.6,31.2,13c8.3,8.4,12.9,19.5,12.9,31.4
				c0,0.8,0,1.6-0.1,2.4c-0.1,1.6-0.3,13.3-0.5,14.9"/>
			<line fill="#000000" stroke="#03EADC" _stroke-width="3" _stroke-miterlimit="10" x1="427" y1="411" x2="517" y2="411"/>
		</g>
	</g>
	<g>
		<line fill="#000000" stroke="#03EADC" _stroke-width="3" _stroke-miterlimit="10" x1="630" y1="313" x2="630" y2="348"/>
		<g>
			<path fill="#000000" stroke="#03EADC" _stroke-width="3" _stroke-miterlimit="10" d="M587.6,409.3c-0.3-1.5-0.5-12.3-0.6-13.9
				c-0.1-1.2-0.1-2.3-0.1-3.5c0-11.8,4.6-23,12.9-31.4c8.3-8.4,19.4-13,31.2-13c11.8,0,22.9,4.6,31.2,13
				c8.3,8.4,12.9,19.5,12.9,31.4c0,0.8,0,1.6-0.1,2.4c-0.1,1.6-0.3,13.3-0.5,14.9"/>
			<line fill="#000000" stroke="#03EADC" _stroke-width="3" _stroke-miterlimit="10" x1="586" y1="411" x2="676" y2="411"/>
		</g>
	</g>
	<g>
		<line fill="#000000" stroke="#03EADC" _stroke-width="3" _stroke-miterlimit="10" x1="788" y1="313" x2="788" y2="348"/>
		<g>
			<path fill="#000000" stroke="#03EADC" _stroke-width="3" _stroke-miterlimit="10" d="M745.6,409.3c-0.3-1.5-0.5-12.3-0.6-13.9
				c-0.1-1.2-0.1-2.3-0.1-3.5c0-11.8,4.6-23,12.9-31.4c8.3-8.4,19.4-13,31.2-13c11.8,0,22.9,4.6,31.2,13
				c8.3,8.4,12.9,19.5,12.9,31.4c0,0.8,0,1.6-0.1,2.4c-0.1,1.6-0.3,13.3-0.5,14.9"/>
			<line fill="#000000" stroke="#03EADC" _stroke-width="3" _stroke-miterlimit="10" x1="744" y1="411" x2="834" y2="411"/>
		</g>
	</g>
</g>
</svg>
