<svg
   xmlns:svg="http://www.w3.org/2000/svg"
   xmlns="http://www.w3.org/2000/svg"
   width="354.33069"
   height="354.33069"
   version="1.1"
>
<!-- <rect width="9999" height="9999" fill="black"/> -->
  <g
    style="fill:white;stroke:white;stroke-width:6.64985943;stroke-linecap:butt;stroke-linejoin:miter;stroke-miterlimit:10;stroke-opacity:1;stroke-dasharray:none"
     transform="translate(-10,-698.03149)">
    <path
       d="m 275.15185,848.05541 -37.06078,-134.78044 -0.33693,0 c -2.88493,-1.47849 -24.99792,-2.62448 -51.88331,-2.62448 -26.88427,0 -49.00392,1.14599 -51.88553,2.62448 l -0.34025,0 -37.060766,134.78044 c 0,2.68874 37.284656,4.88763 84.250386,5.03395 l 0,10.8349 -15.26142,0 c 0,0 -21.19533,19.31894 -21.19533,87.67282 0,54.41242 8.38881,73.28592 11.8146,78.73092 -11.31142,1.0641 -18.61518,2.722 -18.61518,4.5918 l 0,5.8286 c 0,3.2185 21.6198,5.833 48.29349,5.833 26.66816,0 48.28795,-2.6145 48.28795,-5.833 l 0,-5.8286 c 0,-1.8698 -7.29378,-3.5244 -18.61183,-4.5918 3.42245,-5.4485 11.8179,-24.3185 11.8179,-78.73092 0,-68.35388 -21.19865,-87.67282 -21.19865,-87.67282 l -15.26142,0 0,-10.8349 c 46.95798,-0.14632 84.24707,-2.34521 84.24707,-5.03395 z"
       style="fill:none"
      />
    <path
       d="m 275.15234,848.05575 -37.06078,-134.78044 -0.33693,0 c -2.88493,-1.47849 -24.99792,-2.62448 -51.88331,-2.62448 -26.88427,0 -49.00392,1.14599 -51.88553,2.62448 l -0.34025,0 -37.060768,134.78044 c 0,2.68874 37.284658,4.88763 84.250388,5.03395 38.45936,-0.60664 -22.65304,0.0463 10.07011,0 46.95798,-0.14632 84.24707,-2.34521 84.24707,-5.03395 z"
      />
  </g>
</svg>
