<?xml version="1.0" encoding="utf-8"?>
<!-- Generator: Adobe Illustrator 17.1.0, SVG Export Plug-In . SVG Version: 6.00 Build 0)  -->
<!DOCTYPE svg PUBLIC "-//W3C//DTD SVG 1.1//EN" "http://www.w3.org/Graphics/SVG/1.1/DTD/svg11.dtd">
<svg version="1.1" id="Layer_1" xmlns="http://www.w3.org/2000/svg" xmlns:xlink="http://www.w3.org/1999/xlink" x="0px" y="0px"
	 viewBox="0 0 205 83.7" enable-background="new 0 0 205 83.7" xml:space="preserve">
<path fill="#FEFEFE" d="M79.3,23.8h35.1c13.4,0,24.3,11.4,24.3,24.8s-10.8,24.3-24.3,24.3h-11.9c-2.1,0-3.6-1.5-3.6-3.6
	c0-2.1,1.5-3.6,3.6-3.6h11.9c9.3,0,17-7.7,17-17s-7.7-17-17-17H79.3l7.2,7.2c1,1.5,1,3.6,0,5.2c-1.5,1.5-4.1,1.5-5.7,0L67.4,30.5
	c-0.5-0.5-0.5-1-0.5-1c-0.5-0.5-0.5-1-0.5-1.5c0-0.5,0-1,0.5-1.5c0-0.5,0-1,0.5-1l13.4-13.9c1.5-1,4.1-1,5.7,0c1,1.5,1,4.1,0,5.7
	L79.3,23.8z"/>
</svg>
