<?xml version="1.0" encoding="UTF-8" standalone="no"?>
<!-- Generator: Adobe Illustrator 17.1.0, SVG Export Plug-In . SVG Version: 6.00 Build 0)  -->

<svg
   xmlns:dc="http://purl.org/dc/elements/1.1/"
   xmlns:cc="http://creativecommons.org/ns#"
   xmlns:rdf="http://www.w3.org/1999/02/22-rdf-syntax-ns#"
   xmlns:svg="http://www.w3.org/2000/svg"
   xmlns="http://www.w3.org/2000/svg"
   xmlns:sodipodi="http://sodipodi.sourceforge.net/DTD/sodipodi-0.dtd"
   xmlns:inkscape="http://www.inkscape.org/namespaces/inkscape"
   version="1.1"
   id="Layer_1"
   x="0px"
   y="0px"
   viewBox="0 0 205 83.7"
   enable-background="new 0 0 205 83.7"
   xml:space="preserve"
   inkscape:version="0.91 r13725"
   sodipodi:docname="назад.svg"><metadata
     id="metadata9"><rdf:RDF><cc:Work
         rdf:about=""><dc:format>image/svg+xml</dc:format><dc:type
           rdf:resource="http://purl.org/dc/dcmitype/StillImage" /><dc:title></dc:title></cc:Work></rdf:RDF></metadata><defs
     id="defs7" /><sodipodi:namedview
     pagecolor="#ff00ff"
     bordercolor="#666666"
     borderopacity="1"
     objecttolerance="10"
     gridtolerance="10"
     guidetolerance="10"
     inkscape:pageopacity="0"
     inkscape:pageshadow="2"
     inkscape:window-width="1920"
     inkscape:window-height="1005"
     id="namedview5"
     showgrid="false"
     inkscape:zoom="8.7737424"
     inkscape:cx="102.72795"
     inkscape:cy="41.849998"
     inkscape:window-x="0"
     inkscape:window-y="38"
     inkscape:window-maximized="1"
     inkscape:current-layer="Layer_1" /><path
     id="path3"
     d="m 79.3,23.8 35.1,0 c 13.4,0 24.3,11.4 24.3,24.8 0,13.4 -10.8,24.3 -24.3,24.3 l -11.9,0 c -2.1,0 -3.6,-1.5 -3.6,-3.6 0,-2.1 1.5,-3.6 3.6,-3.6 l 11.9,0 c 9.3,0 17,-7.7 17,-17 0,-9.3 -7.7,-17 -17,-17 l -35.1,0 7.2,7.2 c 1,1.5 1,3.6 0,5.2 -1.5,1.5 -4.1,1.5 -5.7,0 L 67.4,30.5 c -0.5,-0.5 -0.5,-1 -0.5,-1 -0.5,-0.5 -0.5,-1 -0.5,-1.5 0,-0.5 0,-1 0.5,-1.5 0,-0.5 0,-1 0.5,-1 L 80.8,11.6 c 1.5,-1 4.1,-1 5.7,0 1,1.5 1,4.1 0,5.7 l -7.2,6.5 z"
     style="fill:#ffffff;fill-opacity:1" /></svg>