<?xml version="1.0" encoding="utf-8"?>
<!-- Generator: Adobe Illustrator 17.1.0, SVG Export Plug-In . SVG Version: 6.00 Build 0)  -->
<!DOCTYPE svg PUBLIC "-//W3C//DTD SVG 1.1//EN" "http://www.w3.org/Graphics/SVG/1.1/DTD/svg11.dtd">
<svg version="1.1" id="Layer_1" xmlns="http://www.w3.org/2000/svg" xmlns:xlink="http://www.w3.org/1999/xlink" x="0px" y="0px"
	 viewBox="0 0 205 83.7" enable-background="new 0 0 205 83.7" xml:space="preserve">
<path fill="#FEFEFE" d="M118.7,28.5v-0.6c0-3.2-1.3-6.3-4.4-8.9c-3.2-3.2-7-3.8-11.4-3.8s-8.9,0.6-12,3.8c-2.5,2.5-4.4,5.7-4.4,9.5
	c0,1.9-1.3,3.8-3.2,3.8c-2.5,0-3.8-1.9-3.8-3.8c0-5.7,1.9-10.8,6.3-14.6c4.4-4.4,10.8-6.3,17.1-6.3s12,1.9,16.5,6.3
	c4.4,3.8,7,8.2,7,13.9v0.6l0,0l0,0c0,5.7-2.5,10.8-7,14.6c-0.6,0.6-1.9,1.3-3.2,2.5c-1.3,0.6-3.2,1.3-5.1,1.9l0,0
	c-3.2,1.3-4.4,3.8-4.4,7v8.2c0,1.9-1.9,3.2-3.8,3.2c-2.5,0-3.8-1.3-3.8-3.2v-8.2c0-7,3.8-12,10.1-13.9c1.3-0.6,2.5-0.6,3.2-1.3
	c0.6-0.6,1.3-1.3,1.9-1.9C117.4,34.9,118.7,32.3,118.7,28.5L118.7,28.5z M102.8,68.5c1.9,0,3.8,1.9,3.8,3.8c0,1.9-1.9,3.8-3.8,3.8
	c-2.5,0-3.8-1.9-3.8-3.8C99,70.4,100.3,68.5,102.8,68.5z"/>
</svg>
