<?xml version="1.0" encoding="UTF-8" standalone="no"?>
<!-- Generator: Adobe Illustrator 17.1.0, SVG Export Plug-In . SVG Version: 6.00 Build 0)  -->

<svg
   xmlns:dc="http://purl.org/dc/elements/1.1/"
   xmlns:cc="http://creativecommons.org/ns#"
   xmlns:rdf="http://www.w3.org/1999/02/22-rdf-syntax-ns#"
   xmlns:svg="http://www.w3.org/2000/svg"
   xmlns="http://www.w3.org/2000/svg"
   xmlns:sodipodi="http://sodipodi.sourceforge.net/DTD/sodipodi-0.dtd"
   xmlns:inkscape="http://www.inkscape.org/namespaces/inkscape"
   version="1.1"
   id="Layer_1"
   x="0px"
   y="0px"
   viewBox="0 0 205 83.7"
   enable-background="new 0 0 205 83.7"
   xml:space="preserve"
   inkscape:version="0.91 r13725"
   sodipodi:docname="справка.svg"><metadata
     id="metadata9"><rdf:RDF><cc:Work
         rdf:about=""><dc:format>image/svg+xml</dc:format><dc:type
           rdf:resource="http://purl.org/dc/dcmitype/StillImage" /><dc:title></dc:title></cc:Work></rdf:RDF></metadata><defs
     id="defs7" /><sodipodi:namedview
     pagecolor="#ff00ff"
     bordercolor="#666666"
     borderopacity="1"
     objecttolerance="10"
     gridtolerance="10"
     guidetolerance="10"
     inkscape:pageopacity="0"
     inkscape:pageshadow="2"
     inkscape:window-width="1920"
     inkscape:window-height="1005"
     id="namedview5"
     showgrid="false"
     inkscape:zoom="8.7737424"
     inkscape:cx="102.72795"
     inkscape:cy="41.849998"
     inkscape:window-x="0"
     inkscape:window-y="38"
     inkscape:window-maximized="1"
     inkscape:current-layer="Layer_1" /><path
     id="path3"
     d="m 102.8,68.5 c 1.9,0 3.8,1.9 3.8,3.8 0,1.9 -1.9,3.8 -3.8,3.8 -2.5,0 -3.8,-1.9 -3.8,-3.8 0,-1.9 1.3,-3.8 3.8,-3.8 z m 15.9,-40 0,-0.6 c 0,-3.2 -1.3,-6.3 -4.4,-8.9 -3.2,-3.2 -7,-3.8 -11.4,-3.8 -4.4,0 -8.9,0.6 -12,3.8 -2.5,2.5 -4.4,5.7 -4.4,9.5 0,1.9 -1.3,3.8 -3.2,3.8 -2.5,0 -3.8,-1.9 -3.8,-3.8 0,-5.7 1.9,-10.8 6.3,-14.6 4.4,-4.4 10.8,-6.3 17.1,-6.3 6.3,0 12,1.9 16.5,6.3 4.4,3.8 7,8.2 7,13.9 l 0,0.6 0,0 0,0 c 0,5.7 -2.5,10.8 -7,14.6 -0.6,0.6 -1.9,1.3 -3.2,2.5 -1.3,0.6 -3.2,1.3 -5.1,1.9 l 0,0 c -3.2,1.3 -4.4,3.8 -4.4,7 l 0,8.2 c 0,1.9 -1.9,3.2 -3.8,3.2 -2.5,0 -3.8,-1.3 -3.8,-3.2 l 0,-8.2 c 0,-7 3.8,-12 10.1,-13.9 1.3,-0.6 2.5,-0.6 3.2,-1.3 0.6,-0.6 1.3,-1.3 1.9,-1.9 3.1,-2.4 4.4,-5 4.4,-8.8 l 0,0 z"
     style="fill:#ffffff;fill-opacity:1" /></svg>