<?xml version="1.0" encoding="UTF-8" standalone="no"?>
<!-- Generator: Adobe Illustrator 17.1.0, SVG Export Plug-In . SVG Version: 6.00 Build 0)  -->

<svg
   xmlns:dc="http://purl.org/dc/elements/1.1/"
   xmlns:cc="http://creativecommons.org/ns#"
   xmlns:rdf="http://www.w3.org/1999/02/22-rdf-syntax-ns#"
   xmlns:svg="http://www.w3.org/2000/svg"
   xmlns="http://www.w3.org/2000/svg"
   xmlns:sodipodi="http://sodipodi.sourceforge.net/DTD/sodipodi-0.dtd"
   xmlns:inkscape="http://www.inkscape.org/namespaces/inkscape"
   version="1.1"
   id="Layer_1"
   x="0px"
   y="0px"
   viewBox="0 0 205 83.7"
   enable-background="new 0 0 205 83.7"
   xml:space="preserve"
   inkscape:version="0.91 r13725"
   sodipodi:docname="меню.svg"><metadata
     id="metadata9"><rdf:RDF><cc:Work
         rdf:about=""><dc:format>image/svg+xml</dc:format><dc:type
           rdf:resource="http://purl.org/dc/dcmitype/StillImage" /><dc:title></dc:title></cc:Work></rdf:RDF></metadata><defs
     id="defs7" /><sodipodi:namedview
     pagecolor="#ff00ff"
     bordercolor="#666666"
     borderopacity="1"
     objecttolerance="10"
     gridtolerance="10"
     guidetolerance="10"
     inkscape:pageopacity="0"
     inkscape:pageshadow="2"
     inkscape:window-width="1920"
     inkscape:window-height="1005"
     id="namedview5"
     showgrid="false"
     inkscape:zoom="8.7737424"
     inkscape:cx="102.72795"
     inkscape:cy="41.849998"
     inkscape:window-x="0"
     inkscape:window-y="38"
     inkscape:window-maximized="1"
     inkscape:current-layer="Layer_1" /><path
     id="path3"
     d="m 70.3,38.1 64.5,0 c 2.3,0 4,1.7 4,4 0,1.7 -1.7,3.5 -4,3.5 l -64.5,0 c -2.3,0 -4,-1.7 -4,-3.5 -0.1,-2.3 1.7,-4 4,-4 z m 64.5,28.2 -64.5,0 c -2.3,0 -4,-1.7 -4,-3.5 0,-2.3 1.7,-4 4,-4 l 64.5,0 c 2.3,0 4,1.7 4,4 0,1.8 -1.7,3.5 -4,3.5 z m -64.5,-48.9 64.5,0 c 2.3,0 4,1.7 4,4 0,1.7 -1.7,3.5 -4,3.5 l -64.5,0 c -2.3,0 -4,-1.7 -4,-3.5 -0.1,-2.3 1.7,-4 4,-4 z"
     style="fill:#ffffff;fill-opacity:1" /></svg>