<?xml version="1.0" encoding="utf-8"?>
<!-- Generator: Adobe Illustrator 17.1.0, SVG Export Plug-In . SVG Version: 6.00 Build 0)  -->
<!DOCTYPE svg PUBLIC "-//W3C//DTD SVG 1.1//EN" "http://www.w3.org/Graphics/SVG/1.1/DTD/svg11.dtd">
<svg version="1.1" id="Layer_1" xmlns="http://www.w3.org/2000/svg" xmlns:xlink="http://www.w3.org/1999/xlink" x="0px" y="0px"
	 viewBox="0 0 205 83.7" enable-background="new 0 0 205 83.7" xml:space="preserve">
<path fill="#FEFEFE" d="M70.3,17.4h64.5c2.3,0,4,1.7,4,4c0,1.7-1.7,3.5-4,3.5H70.3c-2.3,0-4-1.7-4-3.5C66.2,19.1,68,17.4,70.3,17.4z
	 M134.8,66.3H70.3c-2.3,0-4-1.7-4-3.5c0-2.3,1.7-4,4-4h64.5c2.3,0,4,1.7,4,4C138.8,64.6,137.1,66.3,134.8,66.3z M70.3,38.1h64.5
	c2.3,0,4,1.7,4,4c0,1.7-1.7,3.5-4,3.5H70.3c-2.3,0-4-1.7-4-3.5C66.2,39.8,68,38.1,70.3,38.1z"/>
</svg>
